<svg width="630" height="623" viewBox="0 0 630 623" fill="none" xmlns="http://www.w3.org/2000/svg">
<path fill-rule="evenodd" clip-rule="evenodd" d="M611.689 208.052C610.902 205.705 610.018 203.261 609.035 200.914C608.183 198.697 607.331 196.513 606.479 194.362C604.841 190.45 603.105 186.571 601.27 182.724C599.828 179.595 598.321 176.498 596.749 173.434C596.552 172.978 596.355 172.554 596.159 172.163C594.914 169.751 593.669 167.404 592.424 165.122C591.834 164.046 591.244 162.873 590.458 161.504C587.378 156.027 584.135 150.649 580.727 145.368C554.779 104.784 519.591 70.4595 478.31 45.7182C387.097 -10.4143 273.573 -14.8149 174.595 33.8854C93.2112 73.8822 34.8273 143.901 11.2378 227.024C9.0754 234.717 7.17512 242.54 5.53696 250.494C5.04551 253.33 4.45578 256.068 4.06262 258.904C2.75209 266.271 1.76919 273.703 1.11393 281.201V281.396C0.622483 287.753 0.327614 294.207 0.131035 300.466C-1.77806e-05 305.029 -0.032757 309.56 0.0327694 314.059C0.425928 350.437 5.93013 384.86 16.5454 416.642C19.8217 426.421 23.5895 435.972 27.8487 445.295C30.0766 450.25 32.4356 455.107 34.9256 459.866C35.9085 461.757 36.9241 463.615 37.9725 465.44C40.0038 469.091 42.1007 472.709 44.2631 476.295C44.3286 476.425 44.3941 476.556 44.4596 476.686C45.9667 479.098 47.5066 481.478 49.0793 483.825C60.7757 501.819 74.438 518.346 89.8694 533.112C94.0631 537.219 98.3878 541.196 102.844 545.043C103.433 545.564 104.023 546.086 104.613 546.607C106.579 548.237 108.544 549.834 110.51 551.399C112.738 553.225 115.032 555.017 117.39 556.778C117.39 556.778 117.423 556.778 117.489 556.778C118.537 557.625 119.618 558.44 120.732 559.222C120.667 559.222 120.667 559.222 120.732 559.222C134.591 569.491 149.531 578.585 165.356 586.506C168.993 588.364 172.728 590.125 176.463 591.787C184.26 595.373 192.254 598.665 200.445 601.664C237.893 615.257 278.094 622.2 318.098 622.2C342.768 622.2 367.243 619.56 391.029 614.279C451.28 600.882 504.455 571.153 544.95 528.32C590.261 480.402 618.274 418.5 628.3 344.374V344.178C633.214 298.705 627.415 251.57 611.689 208.052ZM569.916 457.323C565.984 466.125 563.232 475.513 556.941 483.141C552.125 489.008 547.604 494.973 542.689 500.743C538.07 506.317 533.254 511.793 528.241 516.976C522.835 522.551 517.232 528.027 511.335 533.112C504.553 538.98 497.574 544.651 490.399 550.03C484.502 554.431 478.211 558.245 472.019 562.156C466.122 565.872 460.224 569.491 454.032 572.718C447.348 576.14 440.468 579.368 433.588 582.399C426.773 585.463 419.86 588.299 412.849 590.907C408.622 592.472 404.199 593.547 399.776 594.721C393.682 596.481 387.687 598.144 381.593 599.806C377.465 600.882 373.336 602.055 369.11 602.74C361.837 604.011 354.465 604.989 347.093 605.771C340.606 606.456 334.021 606.554 327.534 607.043C326.747 607.14 325.961 607.238 325.076 607.434C315.968 607.629 306.86 607.466 297.752 606.945C297.752 606.456 297.752 606.163 297.948 606.065C304.239 598.828 307.286 589.636 312.594 581.812C314.658 578.585 318.196 575.945 321.734 574.087C329.303 569.98 337.363 566.557 345.226 562.841C355.055 558.049 364.294 552.768 369.896 542.696C372.157 538.588 372.648 534.286 372.55 529.787C372.452 526.658 372.943 524.115 375.794 522.355C375.925 522.29 376.089 522.159 376.285 521.964C379.725 517.759 383.362 515.999 389.063 518.541C391.323 519.519 394.862 517.954 397.712 517.074C402.332 515.51 406.853 513.847 411.276 511.891C415.306 510.033 419.139 507.784 422.973 505.535C423.857 505.046 424.644 503.97 424.938 502.992C427.101 496.44 431.819 492.137 437.716 488.91C444.203 485.194 447.054 479.327 447.349 472.286C447.545 468.178 448.921 465.831 452.853 464.462C464.451 460.453 472.609 452.336 478.899 442.264C482.438 436.396 480.865 426.91 475.754 422.412C473.395 420.358 471.233 418.109 468.677 416.251C467.694 415.566 466.024 415.664 464.647 415.664C457.374 415.566 450.002 415.664 442.631 415.566C439.879 415.566 438.404 413.611 437.913 411.166C437.421 409.406 427.101 407.254 426.413 405.689C399.776 434.245 345.521 479.62 282.32 533.308C281.534 536.241 278.094 550.03 277.308 552.866C274.261 564.894 269.838 576.727 269.641 589.342C269.543 593.45 271.017 597.655 271.705 601.762C271.902 602.544 272 603.327 272.295 604.304C247.231 600.686 222.757 594.33 199.561 585.235C195.957 583.866 192.385 582.399 188.847 580.834C175.774 575.163 163.193 568.708 151.202 561.374C147.86 559.353 144.551 557.267 141.275 555.115C135.509 551.269 129.873 547.259 124.369 543.087C120.044 539.762 115.785 536.274 111.591 532.623C98.9121 521.768 87.3139 509.838 76.8952 496.831C72.8326 491.877 68.9993 486.759 65.3953 481.478C64.0848 479.653 62.807 477.762 61.562 475.806C60.0877 473.557 58.6133 471.308 57.2373 469.058C56.1889 467.298 55.1404 465.571 54.092 463.876C51.602 459.508 49.1775 455.074 46.8186 450.576C40.528 438.254 35.1221 425.346 30.6991 412.046C22.1479 386.424 17.0368 359.141 15.4642 330.39C15.1366 325.044 14.94 319.665 14.8745 314.254C14.8089 309.821 14.8417 305.355 14.9728 300.857C15.1693 294.794 15.4642 288.633 15.8574 282.472C21.6564 222.232 45.7374 166.784 84.1686 121.996C83.972 122.843 83.7427 123.691 83.4806 124.538C83.8082 124.147 84.1031 123.756 84.3652 123.365C84.5618 122.974 84.8566 122.68 85.1515 122.387C85.4136 122.517 85.6757 122.648 85.9378 122.778C85.643 123.952 85.3481 125.223 84.9549 126.396C81.4165 136.175 77.2883 145.857 74.5362 155.832C70.9978 168.447 68.1474 181.257 65.6902 194.068C63.8227 204.239 64.8056 214.604 65.985 224.873C66.7714 231.816 68.0491 238.759 69.2286 245.702C69.7201 248.049 70.2115 250.69 73.1602 251.765C73.6516 251.961 73.8482 252.841 74.3397 253.232C75.5191 254.503 76.502 256.362 77.8781 256.85C82.596 258.708 84.7584 261.936 84.9549 266.727C85.1515 271.226 86.8224 274.942 90.5574 277.778C92.1301 278.951 93.3096 280.907 94.8822 282.276C97.4377 284.526 99.7967 287.068 102.745 288.633C108.839 291.664 113.557 296.456 118.57 300.759C121.027 302.91 123.386 305.257 126.04 307.115C128.89 309.071 131.937 310.636 134.886 312.298C137.638 313.863 140.489 315.525 143.83 317.481C143.339 317.481 142.847 317.481 142.356 317.481C142.749 317.775 143.241 318.068 143.634 318.361C149.236 322.469 152.676 328.434 156.117 334.399C159.753 334.497 163.39 335.475 167.027 336.649C175.48 339.582 184.031 344.178 192.385 344.081C189.928 342.223 187.766 338.507 185.997 334.204C183.539 328.238 181.868 321.197 181.868 317.286C180.034 317.351 178.166 317.416 176.266 317.481C173.022 317.677 170.663 315.134 171.941 312.005C174.792 305.257 176.856 297.923 183.834 293.62C187.078 291.567 187.078 288.144 184.227 285.601C183.441 284.819 182.753 283.939 182.065 282.961C180.099 280.125 178.33 279.538 175.48 281.592C173.317 283.059 171.843 285.308 169.779 287.068C168.599 288.046 167.125 288.828 165.651 289.415C160.146 291.371 154.544 290.882 148.843 290.589C144.125 290.295 140.587 288.046 138.228 284.623C136.262 281.592 135.083 277.974 134.001 274.551C132.92 271.128 132.232 267.51 131.544 263.989C130.168 257.633 133.117 252.743 137.343 248.343C139.211 246.387 141.177 244.431 143.437 242.964C144.715 242.084 146.681 242.182 148.253 241.791C150.907 241.302 153.758 241.302 156.117 240.128C162.309 236.999 168.698 237.586 175.283 237.977C178.33 238.172 181.672 237.586 184.522 236.412C188.159 234.945 191.403 232.5 194.941 230.447C195.826 233.087 196.907 235.923 197.595 238.857C198.774 244.04 200.937 248.832 205.458 251.765C210.176 254.797 211.257 259.393 212.633 263.989C214.009 268.781 216.761 272.497 220.988 275.138C222.56 276.213 227.573 274.453 229.047 272.497C230.817 270.346 230.62 268.292 228.851 266.141C224.821 261.349 223.445 255.481 221.774 249.614C221.381 248.147 220.496 246.485 219.317 245.507C217.351 243.844 216.958 241.986 217.842 239.835C218.727 237.977 219.907 236.314 220.693 234.456C221.479 232.696 221.971 230.74 222.659 228.882C223.248 227.317 223.936 225.753 224.723 224.286C227.18 219.787 229.735 215.289 232.094 210.693C232.389 210.302 232.684 209.617 232.488 209.226C231.701 205.412 233.962 204.336 237.107 203.456C244.577 201.305 249.098 195.633 252.735 189.179C253.915 187.125 254.996 186.538 257.551 186.734C260.893 186.929 264.432 186.636 267.577 185.463C272.295 183.702 272.983 180.182 270.132 175.977C269.838 175.488 269.641 174.901 269.051 173.923C273.573 173.728 277.701 173.239 281.829 173.239C287.038 173.336 292.149 173.728 297.26 173.923C297.555 173.923 297.948 173.923 298.243 174.119C303.059 177.248 307.974 176.661 312.495 173.728C316.82 170.989 319.769 166.98 321.341 161.993C323.012 156.712 322.816 155.245 318.884 152.409C317.803 151.627 316.132 151.333 314.756 151.529C308.957 152.213 303.158 153.974 297.359 153.974C291.166 153.974 284.679 153.191 279.667 148.497C277.308 146.346 277.701 143.803 280.551 142.239C287.235 138.62 294.508 136.664 302.077 136.371C314.756 135.882 323.995 128.548 326.747 116.324C327.927 110.75 325.273 105.371 320.85 101.948C315.247 97.6456 308.465 96.4721 302.175 94.1251C300.504 93.5383 298.145 94.2229 296.277 94.9074C294.508 95.5919 293.427 95.9831 292.051 94.0273C288.021 87.9642 282.615 83.4658 276.325 79.8475C271.41 77.0115 264.923 77.5983 261.188 82.3901C257.846 86.7907 255.487 92.0714 253.325 97.1566C252.637 98.8191 254.111 101.264 254.21 103.415C254.308 105.176 254.013 107.131 253.325 108.794C252.145 111.63 250.475 114.466 249 117.302C247.329 120.627 244.577 121.702 241.334 119.844C239.171 118.573 237.402 116.617 235.535 114.857C233.667 113.097 231.996 110.75 229.834 109.478C227.376 108.109 224.526 108.403 221.774 109.772C220.889 110.163 219.12 109.674 218.236 109.087C213.616 105.86 210.274 101.557 208.701 96.2765C208.407 95.2008 209.291 93.4405 210.176 92.3648C212.633 88.7465 215.287 85.226 217.941 81.7055C218.006 81.7055 218.039 81.7055 218.039 81.7055C218.727 80.8254 219.906 80.043 220.988 79.8475C220.988 79.8475 220.988 79.8149 220.988 79.7497C224.428 77.7939 230.423 74.7623 237.304 71.4374C237.369 71.3722 237.435 71.2744 237.5 71.144C237.992 70.2639 238.975 69.0904 239.859 68.8948C241.301 68.634 242.742 68.4058 244.184 68.2103C258.338 61.5604 273.278 55.3996 274.555 56.7686C276.914 59.7024 279.961 60.1913 283.598 60.0936C285.76 60.0936 287.923 61.3648 289.889 62.3428C292.051 63.5163 293.82 65.2765 296.671 64.103C299.718 62.7339 300.799 60.6803 299.128 57.8443C295.983 52.4658 292.837 46.9895 289.102 42.0999C287.235 39.7529 283.991 38.0904 281.141 37.1125C276.423 35.45 271.41 34.3743 266.496 33.592C258.927 32.4185 251.752 34.2765 245.167 37.797C237.992 41.6109 237.009 41.8065 225.607 38.7749C217.351 36.4279 209.488 37.7971 202.018 41.6109C195.236 45.0336 188.847 49.3365 180.984 50.021C179.706 50.1188 178.428 50.3144 177.052 50.4122C177.052 50.2166 176.954 50.021 176.856 49.7276C177.642 49.2387 178.33 48.6519 179.116 48.2608C196.12 40.4374 213.125 32.7119 231.308 28.1157C244.282 24.7907 257.453 22.346 270.624 19.6078C273.081 19.1188 274.359 19.7056 274.654 22.5415C274.752 23.715 276.521 25.4753 277.602 25.4753C282.419 25.5731 287.333 25.1819 292.248 24.7907C295.098 24.693 297.654 24.1062 300.7 24.7907C304.73 25.8665 309.252 25.2797 313.478 25.1819C314.559 25.1819 315.641 24.8885 316.722 24.7907C322.521 24.204 325.764 26.8444 326.649 32.6141C326.747 33.592 328.123 35.0589 329.204 35.1567C331.858 35.5478 334.709 35.4501 337.461 35.2545C339.427 35.1567 341.098 34.9611 341.392 37.6993C341.491 38.3838 342.572 39.4595 343.358 39.5573C346.405 39.8507 349.452 39.9485 352.597 40.0463C353.679 40.0463 354.858 39.8507 357.02 39.6551C353.187 44.0557 357.905 46.8917 357.512 50.51C360.264 51.2923 363.016 52.6614 365.768 52.857C368.422 53.0526 371.076 51.9768 373.73 51.6835C377.17 51.2923 379.529 52.7592 380.217 56.1819C380.806 59.0178 382.477 60.1913 385.131 60.2891C392.405 60.5825 399.383 59.2134 406.558 57.4532C415.798 55.204 424.054 49.6298 433.981 50.3144C440.861 50.8033 448.037 50.1188 454.72 51.4879C459.635 52.5636 463.959 56.1819 468.481 58.7245C472.314 60.9737 476.049 63.4185 479.981 65.3743C482.241 66.5478 482.634 67.6235 481.553 69.5793C480.669 71.144 479.981 72.6109 479.194 74.1756C476.541 79.1629 478.211 84.3459 482.831 87.3774C485.78 89.3333 488.335 91.8758 491.186 94.0273C491.775 94.5162 492.66 94.8096 493.348 95.2986C495.117 96.4721 496.69 97.8411 498.361 99.1124C498.852 99.5036 499.147 100.09 499.639 100.579C503.963 104.687 503.767 104.589 501.604 110.261C500.425 113.194 499.442 116.324 499.344 119.453C499.147 124.049 496.985 127.276 493.643 130.015C488.728 134.024 483.519 137.74 478.998 141.945C474.182 146.541 474.771 150.258 479.686 154.365C484.699 158.374 489.318 162.775 494.134 166.98C496.297 168.838 498.459 170.598 500.621 172.456C501.08 172.847 501.539 173.271 501.998 173.728C502.784 174.445 503.537 175.162 504.258 175.879C507.305 179.106 509.173 182.92 507.6 187.81C506.126 191.917 504.848 196.024 502.882 199.936C502.554 200.131 502.227 200.392 501.899 200.718C500.196 202.152 498.459 203.619 496.69 205.119C495.117 206.39 493.545 207.661 491.775 208.444C487.942 210.106 483.716 209.422 479.587 208.835C474.87 208.183 470.119 207.726 465.335 207.466C464.451 207.368 463.566 207.368 462.78 207.759C461.109 208.639 461.207 210.986 460.618 212.746C459.045 217.636 452.558 218.516 447.349 218.516C445.186 220.961 447.545 224.677 449.806 227.024C452.361 229.762 454.917 232.5 458.16 234.358C461.6 236.412 465.63 237.292 469.66 237.977C470.315 238.042 470.971 238.14 471.626 238.27C476.835 239.15 481.946 239.933 487.156 240.813C487.221 241.139 487.221 241.432 487.156 241.693C487.057 243.355 486.566 244.92 485.681 246.387L500.327 258.513C501.309 259.295 502.292 260.078 502.98 261.153C504.946 264.087 504.356 267.51 503.767 271.128C503.668 271.91 503.57 272.693 503.374 273.573C503.275 274.746 503.177 275.92 503.177 277.093C503.374 279.832 504.455 282.472 505.536 285.014C506.027 285.992 506.421 286.97 506.912 287.948C509.468 294.109 509.369 300.759 511.63 306.822C513.792 312.298 519.493 318.459 523.425 322.958C526.865 326.869 530.6 330.292 534.826 333.519C538.561 336.453 543.672 335.573 546.523 339.387C552.125 338.898 556.45 342.125 561.266 344.081C563.625 345.059 565.591 346.037 563.723 349.166C562.446 351.317 561.463 353.762 560.873 356.305C559.89 360.705 560.283 365.008 562.74 369.213C565.886 374.396 566.082 380.361 566.181 386.229C566.279 391.901 566.181 397.671 566.181 403.44C566.181 404.516 566.082 405.787 566.672 406.57C569.424 410.09 568.343 414.002 568.146 417.913C567.753 427.693 567.655 437.472 570.407 446.958C571.292 450.38 571.39 453.803 569.916 457.323ZM225.018 78.9673C226.59 78.6414 228.196 78.3806 229.834 78.185C232.881 77.7939 234.552 76.0336 235.829 73.8822C231.898 75.7402 228.064 77.5005 225.018 78.9673ZM248.804 67.6235C249.852 67.5583 250.9 67.5257 251.949 67.5257C255.389 67.4279 257.158 65.0809 259.124 63.1251C259.91 62.5384 255.192 64.6897 248.804 67.6235ZM248.804 67.6235C249.852 67.5583 250.9 67.5257 251.949 67.5257C255.389 67.4279 257.158 65.0809 259.124 63.1251C259.91 62.5384 255.192 64.6897 248.804 67.6235ZM225.018 78.9673C226.59 78.6414 228.196 78.3806 229.834 78.185C232.881 77.7939 234.552 76.0336 235.829 73.8822C231.898 75.7402 228.064 77.5005 225.018 78.9673ZM225.018 78.9673C226.59 78.6414 228.196 78.3806 229.834 78.185C232.881 77.7939 234.552 76.0336 235.829 73.8822C231.898 75.7402 228.064 77.5005 225.018 78.9673ZM248.804 67.6235C249.852 67.5583 250.9 67.5257 251.949 67.5257C255.389 67.4279 257.158 65.0809 259.124 63.1251C259.91 62.5384 255.192 64.6897 248.804 67.6235ZM395.452 363.639C394.6 363.117 393.715 362.629 392.798 362.172C389.456 360.999 386.311 359.336 383.46 357.185C383.264 357.054 383.1 356.924 382.969 356.794C373.042 348.872 369.11 337.431 355.153 335.573C347.585 334.497 339.721 335.475 332.251 333.91C330.875 333.617 329.499 333.226 328.418 332.443C326.845 331.27 325.961 329.314 324.978 327.652C322.521 323.251 318.687 319.535 314.166 317.188C313.642 316.927 313.085 316.666 312.495 316.406C310.628 315.623 308.564 315.037 306.696 315.721C304.829 316.308 303.551 318.068 302.077 319.339C296.277 323.936 287.137 321.197 280.748 325.011C279.568 325.696 278.389 326.674 277.308 327.652C274.949 329.803 272.688 331.954 269.641 331.954C267.97 332.052 266.496 331.466 265.021 330.781C264.694 330.651 264.366 330.52 264.038 330.39C258.239 327.945 251.949 326.478 245.658 326.185C244.774 326.087 243.791 326.087 242.906 326.38C241.334 327.065 240.547 328.727 239.663 330.194C235.731 335.866 228.556 337.529 221.971 340.267C219.612 341.245 217.351 342.32 215.385 343.787C213.911 344.863 212.535 346.232 210.766 346.819C208.898 347.503 206.736 347.21 204.77 347.014L192.385 345.352H192.287L180.394 343.787C181.836 344.635 183.277 345.515 184.719 346.428C196.514 354.055 207.129 363.346 216.171 374.103C218.137 376.45 220.005 378.895 220.988 381.73C221.676 384.077 221.676 386.424 221.872 388.772C222.953 398.453 227.868 407.156 232.782 415.566C234.355 418.402 236.223 421.434 239.171 422.803C240.056 423.194 240.94 423.488 241.825 423.781C242.71 424.074 243.496 424.368 244.184 424.954C246.248 426.324 246.838 428.964 247.329 431.409C247.526 432.321 247.722 433.267 247.919 434.245C248.902 438.547 249.787 442.85 250.671 447.153C313.38 421.825 364.589 395.128 404.101 371.756C401.939 368.333 398.99 365.79 395.452 363.639ZM248.804 67.6235C249.852 67.5583 250.9 67.5257 251.949 67.5257C255.389 67.4279 257.158 65.0809 259.124 63.1251C259.91 62.5384 255.192 64.6897 248.804 67.6235ZM225.018 78.9673C226.59 78.6414 228.196 78.3806 229.834 78.185C232.881 77.7939 234.552 76.0336 235.829 73.8822C231.898 75.7402 228.064 77.5005 225.018 78.9673ZM225.018 78.9673C226.59 78.6414 228.196 78.3806 229.834 78.185C232.881 77.7939 234.552 76.0336 235.829 73.8822C231.898 75.7402 228.064 77.5005 225.018 78.9673ZM248.804 67.6235C249.852 67.5583 250.9 67.5257 251.949 67.5257C255.389 67.4279 257.158 65.0809 259.124 63.1251C259.91 62.5384 255.192 64.6897 248.804 67.6235ZM395.452 363.639C394.6 363.117 393.715 362.629 392.798 362.172C389.456 360.999 386.311 359.336 383.46 357.185C383.264 357.054 383.1 356.924 382.969 356.794C373.042 348.872 369.11 337.431 355.153 335.573C347.585 334.497 339.721 335.475 332.251 333.91C330.875 333.617 329.499 333.226 328.418 332.443C326.845 331.27 325.961 329.314 324.978 327.652C322.521 323.251 318.687 319.535 314.166 317.188C313.642 316.927 313.085 316.666 312.495 316.406C310.628 315.623 308.564 315.037 306.696 315.721C304.829 316.308 303.551 318.068 302.077 319.339C296.277 323.936 287.137 321.197 280.748 325.011C279.568 325.696 278.389 326.674 277.308 327.652C274.949 329.803 272.688 331.954 269.641 331.954C267.97 332.052 266.496 331.466 265.021 330.781C264.694 330.651 264.366 330.52 264.038 330.39C258.239 327.945 251.949 326.478 245.658 326.185C244.774 326.087 243.791 326.087 242.906 326.38C241.334 327.065 240.547 328.727 239.663 330.194C235.731 335.866 228.556 337.529 221.971 340.267C219.612 341.245 217.351 342.32 215.385 343.787C213.911 344.863 212.535 346.232 210.766 346.819C208.898 347.503 206.736 347.21 204.77 347.014L192.385 345.352H192.287L180.394 343.787C181.836 344.635 183.277 345.515 184.719 346.428C196.514 354.055 207.129 363.346 216.171 374.103C218.137 376.45 220.005 378.895 220.988 381.73C221.676 384.077 221.676 386.424 221.872 388.772C222.953 398.453 227.868 407.156 232.782 415.566C234.355 418.402 236.223 421.434 239.171 422.803C240.056 423.194 240.94 423.488 241.825 423.781C242.71 424.074 243.496 424.368 244.184 424.954C246.248 426.324 246.838 428.964 247.329 431.409C247.526 432.321 247.722 433.267 247.919 434.245C248.902 438.547 249.787 442.85 250.671 447.153C313.38 421.825 364.589 395.128 404.101 371.756C401.939 368.333 398.99 365.79 395.452 363.639ZM395.452 363.639C394.6 363.117 393.715 362.629 392.798 362.172C389.456 360.999 386.311 359.336 383.46 357.185C383.264 357.054 383.1 356.924 382.969 356.794C373.042 348.872 369.11 337.431 355.153 335.573C347.585 334.497 339.721 335.475 332.251 333.91C330.875 333.617 329.499 333.226 328.418 332.443C326.845 331.27 325.961 329.314 324.978 327.652C322.521 323.251 318.687 319.535 314.166 317.188C313.642 316.927 313.085 316.666 312.495 316.406C310.628 315.623 308.564 315.037 306.696 315.721C304.829 316.308 303.551 318.068 302.077 319.339C296.277 323.936 287.137 321.197 280.748 325.011C279.568 325.696 278.389 326.674 277.308 327.652C274.949 329.803 272.688 331.954 269.641 331.954C267.97 332.052 266.496 331.466 265.021 330.781C264.694 330.651 264.366 330.52 264.038 330.39C258.239 327.945 251.949 326.478 245.658 326.185C244.774 326.087 243.791 326.087 242.906 326.38C241.334 327.065 240.547 328.727 239.663 330.194C235.731 335.866 228.556 337.529 221.971 340.267C219.612 341.245 217.351 342.32 215.385 343.787C213.911 344.863 212.535 346.232 210.766 346.819C208.898 347.503 206.736 347.21 204.77 347.014L192.385 345.352H192.287L180.394 343.787C181.836 344.635 183.277 345.515 184.719 346.428C196.514 354.055 207.129 363.346 216.171 374.103C218.137 376.45 220.005 378.895 220.988 381.73C221.676 384.077 221.676 386.424 221.872 388.772C222.953 398.453 227.868 407.156 232.782 415.566C234.355 418.402 236.223 421.434 239.171 422.803C240.056 423.194 240.94 423.488 241.825 423.781C242.71 424.074 243.496 424.368 244.184 424.954C246.248 426.324 246.838 428.964 247.329 431.409C247.526 432.321 247.722 433.267 247.919 434.245C248.902 438.547 249.787 442.85 250.671 447.153C313.38 421.825 364.589 395.128 404.101 371.756C401.939 368.333 398.99 365.79 395.452 363.639ZM248.804 67.6235C249.852 67.5583 250.9 67.5257 251.949 67.5257C255.389 67.4279 257.158 65.0809 259.124 63.1251C259.91 62.5384 255.192 64.6897 248.804 67.6235ZM225.018 78.9673C226.59 78.6414 228.196 78.3806 229.834 78.185C232.881 77.7939 234.552 76.0336 235.829 73.8822C231.898 75.7402 228.064 77.5005 225.018 78.9673ZM225.018 78.9673C226.59 78.6414 228.196 78.3806 229.834 78.185C232.881 77.7939 234.552 76.0336 235.829 73.8822C231.898 75.7402 228.064 77.5005 225.018 78.9673ZM248.804 67.6235C249.852 67.5583 250.9 67.5257 251.949 67.5257C255.389 67.4279 257.158 65.0809 259.124 63.1251C259.91 62.5384 255.192 64.6897 248.804 67.6235ZM395.452 363.639C394.6 363.117 393.715 362.629 392.798 362.172C389.456 360.999 386.311 359.336 383.46 357.185C383.264 357.054 383.1 356.924 382.969 356.794C373.042 348.872 369.11 337.431 355.153 335.573C347.585 334.497 339.721 335.475 332.251 333.91C330.875 333.617 329.499 333.226 328.418 332.443C326.845 331.27 325.961 329.314 324.978 327.652C322.521 323.251 318.687 319.535 314.166 317.188C313.642 316.927 313.085 316.666 312.495 316.406C310.628 315.623 308.564 315.037 306.696 315.721C304.829 316.308 303.551 318.068 302.077 319.339C296.277 323.936 287.137 321.197 280.748 325.011C279.568 325.696 278.389 326.674 277.308 327.652C274.949 329.803 272.688 331.954 269.641 331.954C267.97 332.052 266.496 331.466 265.021 330.781C264.694 330.651 264.366 330.52 264.038 330.39C258.239 327.945 251.949 326.478 245.658 326.185C244.774 326.087 243.791 326.087 242.906 326.38C241.334 327.065 240.547 328.727 239.663 330.194C235.731 335.866 228.556 337.529 221.971 340.267C219.612 341.245 217.351 342.32 215.385 343.787C213.911 344.863 212.535 346.232 210.766 346.819C208.898 347.503 206.736 347.21 204.77 347.014L192.385 345.352H192.287L180.394 343.787C181.836 344.635 183.277 345.515 184.719 346.428C196.514 354.055 207.129 363.346 216.171 374.103C218.137 376.45 220.005 378.895 220.988 381.73C221.676 384.077 221.676 386.424 221.872 388.772C222.953 398.453 227.868 407.156 232.782 415.566C234.355 418.402 236.223 421.434 239.171 422.803C240.056 423.194 240.94 423.488 241.825 423.781C242.71 424.074 243.496 424.368 244.184 424.954C246.248 426.324 246.838 428.964 247.329 431.409C247.526 432.321 247.722 433.267 247.919 434.245C248.902 438.547 249.787 442.85 250.671 447.153C313.38 421.825 364.589 395.128 404.101 371.756C401.939 368.333 398.99 365.79 395.452 363.639ZM395.452 363.639C394.6 363.117 393.715 362.629 392.798 362.172C389.456 360.999 386.311 359.336 383.46 357.185C383.264 357.054 383.1 356.924 382.969 356.794C373.042 348.872 369.11 337.431 355.153 335.573C347.585 334.497 339.721 335.475 332.251 333.91C330.875 333.617 329.499 333.226 328.418 332.443C326.845 331.27 325.961 329.314 324.978 327.652C322.521 323.251 318.687 319.535 314.166 317.188C313.642 316.927 313.085 316.666 312.495 316.406C310.628 315.623 308.564 315.037 306.696 315.721C304.829 316.308 303.551 318.068 302.077 319.339C296.277 323.936 287.137 321.197 280.748 325.011C279.568 325.696 278.389 326.674 277.308 327.652C274.949 329.803 272.688 331.954 269.641 331.954C267.97 332.052 266.496 331.466 265.021 330.781C264.694 330.651 264.399 330.52 264.137 330.39C258.239 327.945 251.949 326.478 245.658 326.185C244.774 326.087 243.791 326.087 242.906 326.38C241.334 327.065 240.547 328.727 239.663 330.194C235.731 335.866 228.556 337.529 221.971 340.267C219.612 341.245 217.351 342.32 215.385 343.787C213.911 344.863 212.535 346.232 210.766 346.819C208.898 347.503 206.736 347.21 204.77 347.014L192.385 345.352L180.394 343.787C181.836 344.635 183.277 345.515 184.719 346.428C196.514 354.055 207.129 363.346 216.171 374.103C218.137 376.45 220.005 378.895 220.988 381.73C221.676 384.077 221.676 386.424 221.872 388.772C222.953 398.453 227.868 407.156 232.782 415.566C234.355 418.402 236.223 421.434 239.171 422.803C240.056 423.194 240.94 423.488 241.825 423.781C242.71 424.074 243.496 424.368 244.184 424.954C246.248 426.324 246.838 428.964 247.329 431.409C247.526 432.321 247.722 433.267 247.919 434.245C248.902 438.547 249.787 442.85 250.671 447.153C313.38 421.825 364.589 395.128 404.101 371.756C401.939 368.333 398.99 365.79 395.452 363.639ZM248.804 67.6235C249.852 67.5583 250.9 67.5257 251.949 67.5257C255.389 67.4279 257.158 65.0809 259.124 63.1251C259.91 62.5384 255.192 64.6897 248.804 67.6235ZM225.018 78.9673C226.59 78.6414 228.196 78.3806 229.834 78.185C232.881 77.7939 234.552 76.0336 235.829 73.8822C231.898 75.7402 228.064 77.5005 225.018 78.9673ZM248.804 67.6235C249.852 67.5583 250.9 67.5257 251.949 67.5257C255.389 67.4279 257.158 65.0809 259.124 63.1251C259.91 62.5384 255.192 64.6897 248.804 67.6235ZM229.834 78.185C232.881 77.7939 234.552 76.0336 235.829 73.8822C231.898 75.7402 228.064 77.5005 225.018 78.9673C226.59 78.6414 228.196 78.3806 229.834 78.185ZM395.452 363.639C394.6 363.117 393.715 362.629 392.798 362.172C389.456 360.999 386.311 359.336 383.46 357.185C383.264 357.054 383.1 356.924 382.969 356.794C373.042 348.872 369.11 337.431 355.153 335.573C347.585 334.497 339.721 335.475 332.251 333.91C330.875 333.617 329.499 333.226 328.418 332.443C326.845 331.27 325.961 329.314 324.978 327.652C322.521 323.251 318.687 319.535 314.166 317.188C313.642 316.927 313.085 316.666 312.495 316.406C310.628 315.623 308.564 315.037 306.696 315.721C304.829 316.308 303.551 318.068 302.077 319.339C296.277 323.936 287.137 321.197 280.748 325.011C279.568 325.696 278.389 326.674 277.308 327.652C274.949 329.803 272.688 331.954 269.641 331.954C267.97 332.052 266.496 331.466 265.021 330.781C264.694 330.651 264.399 330.52 264.137 330.39C258.239 327.945 251.949 326.478 245.658 326.185C244.774 326.087 243.791 326.087 242.906 326.38C241.334 327.065 240.547 328.727 239.663 330.194C235.731 335.866 228.556 337.529 221.971 340.267C219.612 341.245 217.351 342.32 215.385 343.787C213.911 344.863 212.535 346.232 210.766 346.819C208.898 347.503 206.736 347.21 204.77 347.014L192.385 345.352L180.394 343.787C181.836 344.635 183.277 345.515 184.719 346.428C196.514 354.055 207.129 363.346 216.171 374.103C218.137 376.45 220.005 378.895 220.988 381.73C221.676 384.077 221.676 386.424 221.872 388.772C222.953 398.453 227.868 407.156 232.782 415.566C234.355 418.402 236.223 421.434 239.171 422.803C240.056 423.194 240.94 423.488 241.825 423.781C242.71 424.074 243.496 424.368 244.184 424.954C246.248 426.324 246.838 428.964 247.329 431.409C247.526 432.321 247.722 433.267 247.919 434.245C248.902 438.547 249.787 442.85 250.671 447.153C313.38 421.825 364.589 395.128 404.101 371.756C401.939 368.333 398.99 365.79 395.452 363.639ZM259.124 63.1251C259.91 62.5384 255.192 64.6897 248.804 67.6235C249.852 67.5583 250.9 67.5257 251.949 67.5257C255.389 67.4279 257.158 65.0809 259.124 63.1251ZM235.829 73.8822C231.898 75.7402 228.064 77.5005 225.018 78.9673C226.59 78.6414 228.196 78.3806 229.834 78.185C232.881 77.7939 234.552 76.0336 235.829 73.8822ZM225.018 78.9673C226.59 78.6414 228.196 78.3806 229.834 78.185C232.881 77.7939 234.552 76.0336 235.829 73.8822C231.898 75.7402 228.064 77.5005 225.018 78.9673ZM248.804 67.6235C249.852 67.5583 250.9 67.5257 251.949 67.5257C255.389 67.4279 257.158 65.0809 259.124 63.1251C259.91 62.5384 255.192 64.6897 248.804 67.6235ZM395.452 363.639C394.6 363.117 393.715 362.629 392.798 362.172C389.456 360.999 386.311 359.336 383.46 357.185C383.264 357.054 383.1 356.924 382.969 356.794C373.042 348.872 369.11 337.431 355.153 335.573C347.585 334.497 339.721 335.475 332.251 333.91C330.875 333.617 329.499 333.226 328.418 332.443C326.845 331.27 325.961 329.314 324.978 327.652C322.521 323.251 318.687 319.535 314.166 317.188C313.642 316.927 313.085 316.666 312.495 316.406C310.628 315.623 308.564 315.037 306.696 315.721C304.829 316.308 303.551 318.068 302.077 319.339C296.277 323.936 287.137 321.197 280.748 325.011C279.568 325.696 278.389 326.674 277.308 327.652C274.949 329.803 272.688 331.954 269.641 331.954C267.97 332.052 266.496 331.466 265.021 330.781C264.694 330.651 264.399 330.52 264.137 330.39C258.239 327.945 251.949 326.478 245.658 326.185C244.774 326.087 243.791 326.087 242.906 326.38C241.334 327.065 240.547 328.727 239.663 330.194C235.731 335.866 228.556 337.529 221.971 340.267C219.612 341.245 217.351 342.32 215.385 343.787C213.911 344.863 212.535 346.232 210.766 346.819C208.898 347.503 206.736 347.21 204.77 347.014L192.385 345.352L180.394 343.787C181.836 344.635 183.277 345.515 184.719 346.428C196.514 354.055 207.129 363.346 216.171 374.103C218.137 376.45 220.005 378.895 220.988 381.73C221.676 384.077 221.676 386.424 221.872 388.772C222.953 398.453 227.868 407.156 232.782 415.566C234.355 418.402 236.223 421.434 239.171 422.803C240.056 423.194 240.94 423.488 241.825 423.781C242.71 424.074 243.496 424.368 244.184 424.954C246.248 426.324 246.838 428.964 247.329 431.409C247.526 432.321 247.722 433.267 247.919 434.245C248.902 438.547 249.787 442.85 250.671 447.153C313.38 421.825 364.589 395.128 404.101 371.756C401.939 368.333 398.99 365.79 395.452 363.639ZM395.452 363.639C394.6 363.117 393.715 362.629 392.798 362.172C389.456 360.999 386.311 359.336 383.46 357.185C383.264 357.054 383.1 356.924 382.969 356.794C373.042 348.872 369.11 337.431 355.153 335.573C347.585 334.497 339.721 335.475 332.251 333.91C330.875 333.617 329.499 333.226 328.418 332.443C326.845 331.27 325.961 329.314 324.978 327.652C322.521 323.251 318.687 319.535 314.166 317.188C313.642 316.927 313.085 316.666 312.495 316.406C310.628 315.623 308.564 315.037 306.696 315.721C304.829 316.308 303.551 318.068 302.077 319.339C296.277 323.936 287.137 321.197 280.748 325.011C279.568 325.696 278.389 326.674 277.308 327.652C274.949 329.803 272.688 331.954 269.641 331.954C267.97 332.052 266.496 331.466 265.021 330.781C264.694 330.651 264.399 330.52 264.137 330.39C258.239 327.945 251.949 326.478 245.658 326.185C244.774 326.087 243.791 326.087 242.906 326.38C241.334 327.065 240.547 328.727 239.663 330.194C235.731 335.866 228.556 337.529 221.971 340.267C219.612 341.245 217.351 342.32 215.385 343.787C213.911 344.863 212.535 346.232 210.766 346.819C208.898 347.503 206.736 347.21 204.77 347.014L192.385 345.352L180.394 343.787C181.836 344.635 183.277 345.515 184.719 346.428C196.514 354.055 207.129 363.346 216.171 374.103C218.137 376.45 220.005 378.895 220.988 381.73C221.676 384.077 221.676 386.424 221.872 388.772C222.953 398.453 227.868 407.156 232.782 415.566C234.355 418.402 236.223 421.434 239.171 422.803C240.056 423.194 240.94 423.488 241.825 423.781C242.71 424.074 243.496 424.368 244.184 424.954C246.248 426.324 246.838 428.964 247.329 431.409C247.526 432.321 247.722 433.267 247.919 434.245C248.902 438.547 249.787 442.85 250.671 447.153C313.38 421.825 364.589 395.128 404.101 371.756C401.939 368.333 398.99 365.79 395.452 363.639ZM248.804 67.6235C249.852 67.5583 250.9 67.5257 251.949 67.5257C255.389 67.4279 257.158 65.0809 259.124 63.1251C259.91 62.5384 255.192 64.6897 248.804 67.6235ZM225.018 78.9673C226.59 78.6414 228.196 78.3806 229.834 78.185C232.881 77.7939 234.552 76.0336 235.829 73.8822C231.898 75.7402 228.064 77.5005 225.018 78.9673ZM225.018 78.9673C226.59 78.6414 228.196 78.3806 229.834 78.185C232.881 77.7939 234.552 76.0336 235.829 73.8822C231.898 75.7402 228.064 77.5005 225.018 78.9673ZM248.804 67.6235C249.852 67.5583 250.9 67.5257 251.949 67.5257C255.389 67.4279 257.158 65.0809 259.124 63.1251C259.91 62.5384 255.192 64.6897 248.804 67.6235ZM395.452 363.639C394.6 363.117 393.715 362.629 392.798 362.172C389.456 360.999 386.311 359.336 383.46 357.185C383.264 357.054 383.1 356.924 382.969 356.794C373.042 348.872 369.11 337.431 355.153 335.573C347.585 334.497 339.721 335.475 332.251 333.91C330.875 333.617 329.499 333.226 328.418 332.443C326.845 331.27 325.961 329.314 324.978 327.652C322.521 323.251 318.687 319.535 314.166 317.188C313.642 316.927 313.085 316.666 312.495 316.406C310.628 315.623 308.564 315.037 306.696 315.721C304.829 316.308 303.551 318.068 302.077 319.339C296.277 323.936 287.137 321.197 280.748 325.011C279.568 325.696 278.389 326.674 277.308 327.652C274.949 329.803 272.688 331.954 269.641 331.954C267.97 332.052 266.496 331.466 265.021 330.781C264.694 330.651 264.399 330.52 264.137 330.39C258.239 327.945 251.949 326.478 245.658 326.185C244.774 326.087 243.791 326.087 242.906 326.38C241.334 327.065 240.547 328.727 239.663 330.194C235.731 335.866 228.556 337.529 221.971 340.267C219.612 341.245 217.351 342.32 215.385 343.787C213.911 344.863 212.535 346.232 210.766 346.819C208.898 347.503 206.736 347.21 204.77 347.014L192.385 345.352L180.394 343.787C181.836 344.635 183.277 345.515 184.719 346.428C196.514 354.055 207.129 363.346 216.171 374.103C218.137 376.45 220.005 378.895 220.988 381.73C221.676 384.077 221.676 386.424 221.872 388.772C222.953 398.453 227.868 407.156 232.782 415.566C234.355 418.402 236.223 421.434 239.171 422.803C240.056 423.194 240.94 423.488 241.825 423.781C242.71 424.074 243.496 424.368 244.184 424.954C246.248 426.324 246.838 428.964 247.329 431.409C247.526 432.321 247.722 433.267 247.919 434.245C248.902 438.547 249.787 442.85 250.671 447.153C313.38 421.825 364.589 395.128 404.101 371.756C401.939 368.333 398.99 365.79 395.452 363.639ZM281.043 473.85C280.158 478.055 276.914 497.32 277.209 501.525C346.11 463.093 397.024 420.163 421.695 397.671C421.695 392.194 417.075 386.327 417.075 386.327C417.075 386.327 327.239 449.5 281.043 473.85ZM395.452 363.639C394.6 363.117 393.715 362.629 392.798 362.172C389.456 360.999 386.311 359.336 383.46 357.185C383.264 357.054 383.1 356.924 382.969 356.794C373.042 348.872 369.11 337.431 355.153 335.573C347.585 334.497 339.721 335.475 332.251 333.91C330.875 333.617 329.499 333.226 328.418 332.443C326.845 331.27 325.961 329.314 324.978 327.652C322.521 323.251 318.687 319.535 314.166 317.188C313.642 316.927 313.085 316.666 312.495 316.406C310.628 315.623 308.564 315.037 306.696 315.721C304.829 316.308 303.551 318.068 302.077 319.339C296.277 323.936 287.137 321.197 280.748 325.011C279.568 325.696 278.389 326.674 277.308 327.652C274.949 329.803 272.688 331.954 269.641 331.954C267.97 332.052 266.496 331.466 265.021 330.781C264.694 330.651 264.399 330.52 264.137 330.39C258.239 327.945 251.949 326.478 245.658 326.185C244.774 326.087 243.791 326.087 242.906 326.38C241.334 327.065 240.547 328.727 239.663 330.194C235.731 335.866 228.556 337.529 221.971 340.267C219.612 341.245 217.351 342.32 215.385 343.787C213.911 344.863 212.535 346.232 210.766 346.819C208.898 347.503 206.736 347.21 204.77 347.014L192.385 345.352L180.394 343.787C181.836 344.635 183.277 345.515 184.719 346.428C196.514 354.055 207.129 363.346 216.171 374.103C218.137 376.45 220.005 378.895 220.988 381.73C221.676 384.077 221.676 386.424 221.872 388.772C222.953 398.453 227.868 407.156 232.782 415.566C234.355 418.402 236.223 421.434 239.171 422.803C240.056 423.194 240.94 423.488 241.825 423.781C242.71 424.074 243.496 424.368 244.184 424.954C246.248 426.324 246.838 428.964 247.329 431.409C247.526 432.321 247.722 433.267 247.919 434.245C248.902 438.547 249.787 442.85 250.671 447.153C313.38 421.825 364.589 395.128 404.101 371.756C401.939 368.333 398.99 365.79 395.452 363.639ZM248.804 67.6235C249.852 67.5583 250.9 67.5257 251.949 67.5257C255.389 67.4279 257.158 65.0809 259.124 63.1251C259.91 62.5384 255.192 64.6897 248.804 67.6235ZM225.018 78.9673C226.59 78.6414 228.196 78.3806 229.834 78.185C232.881 77.7939 234.552 76.0336 235.829 73.8822C231.898 75.7402 228.064 77.5005 225.018 78.9673ZM225.018 78.9673C226.59 78.6414 228.196 78.3806 229.834 78.185C232.881 77.7939 234.552 76.0336 235.829 73.8822C231.898 75.7402 228.064 77.5005 225.018 78.9673ZM248.804 67.6235C249.852 67.5583 250.9 67.5257 251.949 67.5257C255.389 67.4279 257.158 65.0809 259.124 63.1251C259.91 62.5384 255.192 64.6897 248.804 67.6235ZM395.452 363.639C394.6 363.117 393.715 362.629 392.798 362.172C389.456 360.999 386.311 359.336 383.46 357.185C383.264 357.054 383.1 356.924 382.969 356.794C373.042 348.872 369.11 337.431 355.153 335.573C347.585 334.497 339.721 335.475 332.251 333.91C330.875 333.617 329.499 333.226 328.418 332.443C326.845 331.27 325.961 329.314 324.978 327.652C322.521 323.251 318.687 319.535 314.166 317.188C313.642 316.927 313.085 316.666 312.495 316.406C310.628 315.623 308.564 315.037 306.696 315.721C304.829 316.308 303.551 318.068 302.077 319.339C296.277 323.936 287.137 321.197 280.748 325.011C279.568 325.696 278.389 326.674 277.308 327.652C274.949 329.803 272.688 331.954 269.641 331.954C267.97 332.052 266.496 331.466 265.021 330.781C264.694 330.651 264.399 330.52 264.137 330.39C258.239 327.945 251.949 326.478 245.658 326.185C244.774 326.087 243.791 326.087 242.906 326.38C241.334 327.065 240.547 328.727 239.663 330.194C235.731 335.866 228.556 337.529 221.971 340.267C219.612 341.245 217.351 342.32 215.385 343.787C213.911 344.863 212.535 346.232 210.766 346.819C208.898 347.503 206.736 347.21 204.77 347.014L192.385 345.352L180.394 343.787C181.836 344.635 183.277 345.515 184.719 346.428C196.514 354.055 207.129 363.346 216.171 374.103C218.137 376.45 220.005 378.895 220.988 381.73C221.676 384.077 221.676 386.424 221.872 388.772C222.953 398.453 227.868 407.156 232.782 415.566C234.355 418.402 236.223 421.434 239.171 422.803C240.056 423.194 240.94 423.488 241.825 423.781C242.71 424.074 243.496 424.368 244.184 424.954C246.248 426.324 246.838 428.964 247.329 431.409C247.526 432.321 247.722 433.267 247.919 434.245C248.902 438.547 249.787 442.85 250.671 447.153C313.38 421.825 364.589 395.128 404.101 371.756C401.939 368.333 398.99 365.79 395.452 363.639ZM248.804 67.6235C249.852 67.5583 250.9 67.5257 251.949 67.5257C255.389 67.4279 257.158 65.0809 259.124 63.1251C259.91 62.5384 255.192 64.6897 248.804 67.6235ZM225.018 78.9673C226.59 78.6414 228.196 78.3806 229.834 78.185C232.881 77.7939 234.552 76.0336 235.829 73.8822C231.898 75.7402 228.064 77.5005 225.018 78.9673ZM225.018 78.9673C226.59 78.6414 228.196 78.3806 229.834 78.185C232.881 77.7939 234.552 76.0336 235.829 73.8822C231.898 75.7402 228.064 77.5005 225.018 78.9673ZM248.804 67.6235C249.852 67.5583 250.9 67.5257 251.949 67.5257C255.389 67.4279 257.158 65.0809 259.124 63.1251C259.91 62.5384 255.192 64.6897 248.804 67.6235ZM248.804 67.6235C249.852 67.5583 250.9 67.5257 251.949 67.5257C255.389 67.4279 257.158 65.0809 259.124 63.1251C259.91 62.5384 255.192 64.6897 248.804 67.6235ZM225.018 78.9673C226.59 78.6414 228.196 78.3806 229.834 78.185C232.881 77.7939 234.552 76.0336 235.829 73.8822C231.898 75.7402 228.064 77.5005 225.018 78.9673Z" fill="#FAF9F6"/>
</svg>
