<svg width="834" height="762" viewBox="0 0 834 762" fill="none" xmlns="http://www.w3.org/2000/svg">
<path fill-rule="evenodd" clip-rule="evenodd" d="M701.53 281.28C700.73 278.88 699.83 276.38 698.83 273.98C697.963 271.713 697.097 269.48 696.23 267.28C694.563 263.28 692.797 259.313 690.93 255.38C689.463 252.18 687.93 249.013 686.33 245.88C686.13 245.413 685.93 244.98 685.73 244.58C684.463 242.113 683.197 239.713 681.93 237.38C681.33 236.28 680.73 235.08 679.93 233.68C676.797 228.08 673.497 222.58 670.03 217.18C643.63 175.68 607.83 140.58 565.83 115.28C473.03 57.88 357.53 53.38 256.83 103.18C174.03 144.08 114.63 215.68 90.63 300.68C88.43 308.547 86.4966 316.547 84.83 324.68C84.33 327.58 83.73 330.38 83.33 333.28C81.9966 340.813 80.9966 348.413 80.33 356.08V356.28C79.83 362.78 79.53 369.38 79.33 375.78C79.1966 380.447 79.1633 385.08 79.23 389.68C79.63 426.88 85.23 462.08 96.03 494.58C99.3633 504.58 103.197 514.347 107.53 523.88C109.797 528.947 112.197 533.913 114.73 538.78C115.73 540.713 116.763 542.613 117.83 544.48C119.897 548.213 122.03 551.913 124.23 555.58C124.297 555.713 124.363 555.847 124.43 555.98C125.963 558.447 127.53 560.88 129.13 563.28C141.03 581.68 154.93 598.58 170.63 613.68C174.897 617.88 179.297 621.947 183.83 625.88C184.43 626.413 185.03 626.947 185.63 627.48C187.63 629.147 189.63 630.78 191.63 632.38C193.897 634.247 196.23 636.08 198.63 637.88C198.63 637.88 198.663 637.88 198.73 637.88C199.797 638.747 200.897 639.58 202.03 640.38C201.963 640.38 201.963 640.38 202.03 640.38C216.13 650.88 231.33 660.18 247.43 668.28C251.13 670.18 254.93 671.98 258.73 673.68C266.663 677.347 274.797 680.713 283.13 683.78C321.23 697.68 362.13 704.78 402.83 704.78C427.93 704.78 452.83 702.08 477.03 696.68C538.33 682.98 592.43 652.58 633.63 608.78C679.73 559.78 708.23 496.48 718.43 420.68V420.48C723.43 373.98 717.53 325.78 701.53 281.28ZM659.03 536.18C655.03 545.18 652.23 554.78 645.83 562.58C640.93 568.58 636.33 574.68 631.33 580.58C626.63 586.28 621.73 591.88 616.63 597.18C611.13 602.88 605.43 608.48 599.43 613.68C592.53 619.68 585.43 625.48 578.13 630.98C572.13 635.48 565.73 639.38 559.43 643.38C553.43 647.18 547.43 650.88 541.13 654.18C534.33 657.68 527.33 660.98 520.33 664.08C513.397 667.213 506.363 670.113 499.23 672.78C494.93 674.38 490.43 675.48 485.93 676.68C479.73 678.48 473.63 680.18 467.43 681.88C463.23 682.98 459.03 684.18 454.73 684.88C447.33 686.18 439.83 687.18 432.33 687.98C425.73 688.68 419.03 688.78 412.43 689.28C411.63 689.38 410.83 689.48 409.93 689.68C400.663 689.88 391.397 689.713 382.13 689.18C382.13 688.68 382.13 688.38 382.33 688.28C388.73 680.88 391.83 671.48 397.23 663.48C399.33 660.18 402.93 657.48 406.53 655.58C414.23 651.38 422.43 647.88 430.43 644.08C440.43 639.18 449.83 633.78 455.53 623.48C457.83 619.28 458.33 614.88 458.23 610.28C458.13 607.08 458.63 604.48 461.53 602.68C461.663 602.613 461.83 602.48 462.03 602.28C465.53 597.98 469.23 596.18 475.03 598.78C477.33 599.78 480.93 598.18 483.83 597.28C488.53 595.68 493.13 593.98 497.63 591.98C501.73 590.08 505.63 587.78 509.53 585.48C510.43 584.98 511.23 583.88 511.53 582.88C513.73 576.18 518.53 571.78 524.53 568.48C531.13 564.68 534.03 558.68 534.33 551.48C534.53 547.28 535.93 544.88 539.93 543.48C551.73 539.38 560.03 531.08 566.43 520.78C570.03 514.78 568.43 505.08 563.23 500.48C560.83 498.38 558.63 496.08 556.03 494.18C555.03 493.48 553.33 493.58 551.93 493.58C544.53 493.48 537.03 493.58 529.53 493.48C526.73 493.48 525.23 491.48 524.73 488.98C524.23 487.18 513.73 484.98 513.03 483.38C485.93 512.58 430.73 558.98 366.43 613.88C365.63 616.88 362.13 630.98 361.33 633.88C358.23 646.18 353.73 658.28 353.53 671.18C353.43 675.38 354.93 679.68 355.63 683.88C355.83 684.68 355.93 685.48 356.23 686.48C330.73 682.78 305.83 676.28 282.23 666.98C278.563 665.58 274.93 664.08 271.33 662.48C258.03 656.68 245.23 650.08 233.03 642.58C229.63 640.513 226.263 638.38 222.93 636.18C217.063 632.247 211.33 628.147 205.73 623.88C201.33 620.48 196.997 616.913 192.73 613.18C179.83 602.08 168.03 589.88 157.43 576.58C153.297 571.513 149.397 566.28 145.73 560.88C144.397 559.013 143.097 557.08 141.83 555.08C140.33 552.78 138.83 550.48 137.43 548.18C136.363 546.38 135.297 544.613 134.23 542.88C131.697 538.413 129.23 533.88 126.83 529.28C120.43 516.68 114.93 503.48 110.43 489.88C101.73 463.68 96.53 435.78 94.93 406.38C94.5966 400.913 94.3966 395.413 94.33 389.88C94.2633 385.347 94.2966 380.78 94.43 376.18C94.63 369.98 94.93 363.68 95.33 357.38C101.23 295.78 125.73 239.08 164.83 193.28C164.63 194.147 164.397 195.013 164.13 195.88C164.463 195.48 164.763 195.08 165.03 194.68C165.23 194.28 165.53 193.98 165.83 193.68C166.097 193.813 166.363 193.947 166.63 194.08C166.33 195.28 166.03 196.58 165.63 197.78C162.03 207.78 157.83 217.68 155.03 227.88C151.43 240.78 148.53 253.88 146.03 266.98C144.13 277.38 145.13 287.98 146.33 298.48C147.13 305.58 148.43 312.68 149.63 319.78C150.13 322.18 150.63 324.88 153.63 325.98C154.13 326.18 154.33 327.08 154.83 327.48C156.03 328.78 157.03 330.68 158.43 331.18C163.23 333.08 165.43 336.38 165.63 341.28C165.83 345.88 167.53 349.68 171.33 352.58C172.93 353.78 174.13 355.78 175.73 357.18C178.33 359.48 180.73 362.08 183.73 363.68C189.93 366.78 194.73 371.68 199.83 376.08C202.33 378.28 204.73 380.68 207.43 382.58C210.33 384.58 213.43 386.18 216.43 387.88C219.23 389.48 222.13 391.18 225.53 393.18C225.03 393.18 224.53 393.18 224.03 393.18C224.43 393.48 224.93 393.78 225.33 394.08C231.03 398.28 234.53 404.38 238.03 410.48C241.73 410.58 245.43 411.58 249.13 412.78C257.73 415.78 266.43 420.48 274.93 420.38C272.43 418.48 270.23 414.68 268.43 410.28C265.93 404.18 264.23 396.98 264.23 392.98C262.363 393.047 260.463 393.113 258.53 393.18C255.23 393.38 252.83 390.78 254.13 387.58C257.03 380.68 259.13 373.18 266.23 368.78C269.53 366.68 269.53 363.18 266.63 360.58C265.83 359.78 265.13 358.88 264.43 357.88C262.43 354.98 260.63 354.38 257.73 356.48C255.53 357.98 254.03 360.28 251.93 362.08C250.73 363.08 249.23 363.88 247.73 364.48C242.13 366.48 236.43 365.98 230.63 365.68C225.83 365.38 222.23 363.08 219.83 359.58C217.83 356.48 216.63 352.78 215.53 349.28C214.43 345.78 213.73 342.08 213.03 338.48C211.63 331.98 214.63 326.98 218.93 322.48C220.83 320.48 222.83 318.48 225.13 316.98C226.43 316.08 228.43 316.18 230.03 315.78C232.73 315.28 235.63 315.28 238.03 314.08C244.33 310.88 250.83 311.48 257.53 311.88C260.63 312.08 264.03 311.48 266.93 310.28C270.63 308.78 273.93 306.28 277.53 304.18C278.43 306.88 279.53 309.78 280.23 312.78C281.43 318.08 283.63 322.98 288.23 325.98C293.03 329.08 294.13 333.78 295.53 338.48C296.93 343.38 299.73 347.18 304.03 349.88C305.63 350.98 310.73 349.18 312.23 347.18C314.03 344.98 313.83 342.88 312.03 340.68C307.93 335.78 306.53 329.78 304.83 323.78C304.43 322.28 303.53 320.58 302.33 319.58C300.33 317.88 299.93 315.98 300.83 313.78C301.73 311.88 302.93 310.18 303.73 308.28C304.53 306.48 305.03 304.48 305.73 302.58C306.33 300.98 307.03 299.38 307.83 297.88C310.33 293.28 312.93 288.68 315.33 283.98C315.63 283.58 315.93 282.88 315.73 282.48C314.93 278.58 317.23 277.48 320.43 276.58C328.03 274.38 332.63 268.58 336.33 261.98C337.53 259.88 338.63 259.28 341.23 259.48C344.63 259.68 348.23 259.38 351.43 258.18C356.23 256.38 356.93 252.78 354.03 248.48C353.73 247.98 353.53 247.38 352.93 246.38C357.53 246.18 361.73 245.68 365.93 245.68C371.23 245.78 376.43 246.18 381.63 246.38C381.93 246.38 382.33 246.38 382.63 246.58C387.53 249.78 392.53 249.18 397.13 246.18C401.53 243.38 404.53 239.28 406.13 234.18C407.83 228.78 407.63 227.28 403.63 224.38C402.53 223.58 400.83 223.28 399.43 223.48C393.53 224.18 387.63 225.98 381.73 225.98C375.43 225.98 368.83 225.18 363.73 220.38C361.33 218.18 361.73 215.58 364.63 213.98C371.43 210.28 378.83 208.28 386.53 207.98C399.43 207.48 408.83 199.98 411.63 187.48C412.83 181.78 410.13 176.28 405.63 172.78C399.93 168.38 393.03 167.18 386.63 164.78C384.93 164.18 382.53 164.88 380.63 165.58C378.83 166.28 377.73 166.68 376.33 164.68C372.23 158.48 366.73 153.88 360.33 150.18C355.33 147.28 348.73 147.88 344.93 152.78C341.53 157.28 339.13 162.68 336.93 167.88C336.23 169.58 337.73 172.08 337.83 174.28C337.93 176.08 337.63 178.08 336.93 179.78C335.73 182.68 334.03 185.58 332.53 188.48C330.83 191.88 328.03 192.98 324.73 191.08C322.53 189.78 320.73 187.78 318.83 185.98C316.93 184.18 315.23 181.78 313.03 180.48C310.53 179.08 307.63 179.38 304.83 180.78C303.93 181.18 302.13 180.68 301.23 180.08C296.53 176.78 293.13 172.38 291.53 166.98C291.23 165.88 292.13 164.08 293.03 162.98C295.53 159.28 298.23 155.68 300.93 152.08C300.997 152.08 301.03 152.08 301.03 152.08C301.73 151.18 302.93 150.38 304.03 150.18C304.03 150.18 304.03 150.147 304.03 150.08C307.53 148.08 313.63 144.98 320.63 141.58C320.697 141.513 320.763 141.413 320.83 141.28C321.33 140.38 322.33 139.18 323.23 138.98C324.697 138.713 326.163 138.48 327.63 138.28C342.03 131.48 357.23 125.18 358.53 126.58C360.93 129.58 364.03 130.08 367.73 129.98C369.93 129.98 372.13 131.28 374.13 132.28C376.33 133.48 378.13 135.28 381.03 134.08C384.13 132.68 385.23 130.58 383.53 127.68C380.33 122.18 377.13 116.58 373.33 111.58C371.43 109.18 368.13 107.48 365.23 106.48C360.43 104.78 355.33 103.68 350.33 102.88C342.63 101.68 335.33 103.58 328.63 107.18C321.33 111.08 320.33 111.28 308.73 108.18C300.33 105.78 292.33 107.18 284.73 111.08C277.83 114.58 271.33 118.98 263.33 119.68C262.03 119.78 260.73 119.98 259.33 120.08C259.33 119.88 259.23 119.68 259.13 119.38C259.93 118.88 260.63 118.28 261.43 117.88C278.73 109.88 296.03 101.98 314.53 97.28C327.73 93.88 341.13 91.38 354.53 88.58C357.03 88.08 358.33 88.68 358.63 91.58C358.73 92.78 360.53 94.58 361.63 94.58C366.53 94.68 371.53 94.28 376.53 93.88C379.43 93.78 382.03 93.18 385.13 93.88C389.23 94.98 393.83 94.38 398.13 94.28C399.23 94.28 400.33 93.98 401.43 93.88C407.33 93.28 410.63 95.98 411.53 101.88C411.63 102.88 413.03 104.38 414.13 104.48C416.83 104.88 419.73 104.78 422.53 104.58C424.53 104.48 426.23 104.28 426.53 107.08C426.63 107.78 427.73 108.88 428.53 108.98C431.63 109.28 434.73 109.38 437.93 109.48C439.03 109.48 440.23 109.28 442.43 109.08C438.53 113.58 443.33 116.48 442.93 120.18C445.73 120.98 448.53 122.38 451.33 122.58C454.03 122.78 456.73 121.68 459.43 121.38C462.93 120.98 465.33 122.48 466.03 125.98C466.63 128.88 468.33 130.08 471.03 130.18C478.43 130.48 485.53 129.08 492.83 127.28C502.23 124.98 510.63 119.28 520.73 119.98C527.73 120.48 535.03 119.78 541.83 121.18C546.83 122.28 551.23 125.98 555.83 128.58C559.73 130.88 563.53 133.38 567.53 135.38C569.83 136.58 570.23 137.68 569.13 139.68C568.23 141.28 567.53 142.78 566.73 144.38C564.03 149.48 565.73 154.78 570.43 157.88C573.43 159.88 576.03 162.48 578.93 164.68C579.53 165.18 580.43 165.48 581.13 165.98C582.93 167.18 584.53 168.58 586.23 169.88C586.73 170.28 587.03 170.88 587.53 171.38C591.93 175.58 591.73 175.48 589.53 181.28C588.33 184.28 587.33 187.48 587.23 190.68C587.03 195.38 584.83 198.68 581.43 201.48C576.43 205.58 571.13 209.38 566.53 213.68C561.63 218.38 562.23 222.18 567.23 226.38C572.33 230.48 577.03 234.98 581.93 239.28C584.13 241.18 586.33 242.98 588.53 244.88C588.997 245.28 589.463 245.713 589.93 246.18C590.73 246.913 591.497 247.647 592.23 248.38C595.33 251.68 597.23 255.58 595.63 260.58C594.13 264.78 592.83 268.98 590.83 272.98C590.497 273.18 590.163 273.447 589.83 273.78C588.097 275.247 586.33 276.747 584.53 278.28C582.93 279.58 581.33 280.88 579.53 281.68C575.63 283.38 571.33 282.68 567.13 282.08C562.33 281.413 557.497 280.947 552.63 280.68C551.73 280.58 550.83 280.58 550.03 280.98C548.33 281.88 548.43 284.28 547.83 286.08C546.23 291.08 539.63 291.98 534.33 291.98C532.13 294.48 534.53 298.28 536.83 300.68C539.43 303.48 542.03 306.28 545.33 308.18C548.83 310.28 552.93 311.18 557.03 311.88C557.697 311.947 558.363 312.047 559.03 312.18C564.33 313.08 569.53 313.88 574.83 314.78C574.897 315.113 574.897 315.413 574.83 315.68C574.73 317.38 574.23 318.98 573.33 320.48L588.23 332.88C589.23 333.68 590.23 334.48 590.93 335.58C592.93 338.58 592.33 342.08 591.73 345.78C591.63 346.58 591.53 347.38 591.33 348.28C591.23 349.48 591.13 350.68 591.13 351.88C591.33 354.68 592.43 357.38 593.53 359.98C594.03 360.98 594.43 361.98 594.93 362.98C597.53 369.28 597.43 376.08 599.73 382.28C601.93 387.88 607.73 394.18 611.73 398.78C615.23 402.78 619.03 406.28 623.33 409.58C627.13 412.58 632.33 411.68 635.23 415.58C640.93 415.08 645.33 418.38 650.23 420.38C652.63 421.38 654.63 422.38 652.73 425.58C651.43 427.78 650.43 430.28 649.83 432.88C648.83 437.38 649.23 441.78 651.73 446.08C654.93 451.38 655.13 457.48 655.23 463.48C655.33 469.28 655.23 475.18 655.23 481.08C655.23 482.18 655.13 483.48 655.73 484.28C658.53 487.88 657.43 491.88 657.23 495.88C656.83 505.88 656.73 515.88 659.53 525.58C660.43 529.08 660.53 532.58 659.03 536.18ZM308.13 149.28C309.73 148.947 311.363 148.68 313.03 148.48C316.13 148.08 317.83 146.28 319.13 144.08C315.13 145.98 311.23 147.78 308.13 149.28ZM332.33 137.68C333.397 137.613 334.463 137.58 335.53 137.58C339.03 137.48 340.83 135.08 342.83 133.08C343.63 132.48 338.83 134.68 332.33 137.68ZM332.33 137.68C333.397 137.613 334.463 137.58 335.53 137.58C339.03 137.48 340.83 135.08 342.83 133.08C343.63 132.48 338.83 134.68 332.33 137.68ZM308.13 149.28C309.73 148.947 311.363 148.68 313.03 148.48C316.13 148.08 317.83 146.28 319.13 144.08C315.13 145.98 311.23 147.78 308.13 149.28ZM308.13 149.28C309.73 148.947 311.363 148.68 313.03 148.48C316.13 148.08 317.83 146.28 319.13 144.08C315.13 145.98 311.23 147.78 308.13 149.28ZM332.33 137.68C333.397 137.613 334.463 137.58 335.53 137.58C339.03 137.48 340.83 135.08 342.83 133.08C343.63 132.48 338.83 134.68 332.33 137.68ZM481.53 440.38C480.663 439.847 479.763 439.347 478.83 438.88C475.43 437.68 472.23 435.98 469.33 433.78C469.13 433.647 468.963 433.513 468.83 433.38C458.73 425.28 454.73 413.58 440.53 411.68C432.83 410.58 424.83 411.58 417.23 409.98C415.83 409.68 414.43 409.28 413.33 408.48C411.73 407.28 410.83 405.28 409.83 403.58C407.33 399.08 403.43 395.28 398.83 392.88C398.297 392.613 397.73 392.347 397.13 392.08C395.23 391.28 393.13 390.68 391.23 391.38C389.33 391.98 388.03 393.78 386.53 395.08C380.63 399.78 371.33 396.98 364.83 400.88C363.63 401.58 362.43 402.58 361.33 403.58C358.93 405.78 356.63 407.98 353.53 407.98C351.83 408.08 350.33 407.48 348.83 406.78C348.497 406.647 348.163 406.513 347.83 406.38C341.93 403.88 335.53 402.38 329.13 402.08C328.23 401.98 327.23 401.98 326.33 402.28C324.73 402.98 323.93 404.68 323.03 406.18C319.03 411.98 311.73 413.68 305.03 416.48C302.63 417.48 300.33 418.58 298.33 420.08C296.83 421.18 295.43 422.58 293.63 423.18C291.73 423.88 289.53 423.58 287.53 423.38L274.93 421.68H274.83L262.73 420.08C264.197 420.947 265.663 421.847 267.13 422.78C279.13 430.58 289.93 440.08 299.13 451.08C301.13 453.48 303.03 455.98 304.03 458.88C304.73 461.28 304.73 463.68 304.93 466.08C306.03 475.98 311.03 484.88 316.03 493.48C317.63 496.38 319.53 499.48 322.53 500.88C323.43 501.28 324.33 501.58 325.23 501.88C326.13 502.18 326.93 502.48 327.63 503.08C329.73 504.48 330.33 507.18 330.83 509.68C331.03 510.613 331.23 511.58 331.43 512.58C332.43 516.98 333.33 521.38 334.23 525.78C398.03 499.88 450.13 472.58 490.33 448.68C488.13 445.18 485.13 442.58 481.53 440.38ZM332.33 137.68C333.397 137.613 334.463 137.58 335.53 137.58C339.03 137.48 340.83 135.08 342.83 133.08C343.63 132.48 338.83 134.68 332.33 137.68ZM308.13 149.28C309.73 148.947 311.363 148.68 313.03 148.48C316.13 148.08 317.83 146.28 319.13 144.08C315.13 145.98 311.23 147.78 308.13 149.28ZM308.13 149.28C309.73 148.947 311.363 148.68 313.03 148.48C316.13 148.08 317.83 146.28 319.13 144.08C315.13 145.98 311.23 147.78 308.13 149.28ZM332.33 137.68C333.397 137.613 334.463 137.58 335.53 137.58C339.03 137.48 340.83 135.08 342.83 133.08C343.63 132.48 338.83 134.68 332.33 137.68ZM481.53 440.38C480.663 439.847 479.763 439.347 478.83 438.88C475.43 437.68 472.23 435.98 469.33 433.78C469.13 433.647 468.963 433.513 468.83 433.38C458.73 425.28 454.73 413.58 440.53 411.68C432.83 410.58 424.83 411.58 417.23 409.98C415.83 409.68 414.43 409.28 413.33 408.48C411.73 407.28 410.83 405.28 409.83 403.58C407.33 399.08 403.43 395.28 398.83 392.88C398.297 392.613 397.73 392.347 397.13 392.08C395.23 391.28 393.13 390.68 391.23 391.38C389.33 391.98 388.03 393.78 386.53 395.08C380.63 399.78 371.33 396.98 364.83 400.88C363.63 401.58 362.43 402.58 361.33 403.58C358.93 405.78 356.63 407.98 353.53 407.98C351.83 408.08 350.33 407.48 348.83 406.78C348.497 406.647 348.163 406.513 347.83 406.38C341.93 403.88 335.53 402.38 329.13 402.08C328.23 401.98 327.23 401.98 326.33 402.28C324.73 402.98 323.93 404.68 323.03 406.18C319.03 411.98 311.73 413.68 305.03 416.48C302.63 417.48 300.33 418.58 298.33 420.08C296.83 421.18 295.43 422.58 293.63 423.18C291.73 423.88 289.53 423.58 287.53 423.38L274.93 421.68H274.83L262.73 420.08C264.197 420.947 265.663 421.847 267.13 422.78C279.13 430.58 289.93 440.08 299.13 451.08C301.13 453.48 303.03 455.98 304.03 458.88C304.73 461.28 304.73 463.68 304.93 466.08C306.03 475.98 311.03 484.88 316.03 493.48C317.63 496.38 319.53 499.48 322.53 500.88C323.43 501.28 324.33 501.58 325.23 501.88C326.13 502.18 326.93 502.48 327.63 503.08C329.73 504.48 330.33 507.18 330.83 509.68C331.03 510.613 331.23 511.58 331.43 512.58C332.43 516.98 333.33 521.38 334.23 525.78C398.03 499.88 450.13 472.58 490.33 448.68C488.13 445.18 485.13 442.58 481.53 440.38ZM481.53 440.38C480.663 439.847 479.763 439.347 478.83 438.88C475.43 437.68 472.23 435.98 469.33 433.78C469.13 433.647 468.963 433.513 468.83 433.38C458.73 425.28 454.73 413.58 440.53 411.68C432.83 410.58 424.83 411.58 417.23 409.98C415.83 409.68 414.43 409.28 413.33 408.48C411.73 407.28 410.83 405.28 409.83 403.58C407.33 399.08 403.43 395.28 398.83 392.88C398.297 392.613 397.73 392.347 397.13 392.08C395.23 391.28 393.13 390.68 391.23 391.38C389.33 391.98 388.03 393.78 386.53 395.08C380.63 399.78 371.33 396.98 364.83 400.88C363.63 401.58 362.43 402.58 361.33 403.58C358.93 405.78 356.63 407.98 353.53 407.98C351.83 408.08 350.33 407.48 348.83 406.78C348.497 406.647 348.163 406.513 347.83 406.38C341.93 403.88 335.53 402.38 329.13 402.08C328.23 401.98 327.23 401.98 326.33 402.28C324.73 402.98 323.93 404.68 323.03 406.18C319.03 411.98 311.73 413.68 305.03 416.48C302.63 417.48 300.33 418.58 298.33 420.08C296.83 421.18 295.43 422.58 293.63 423.18C291.73 423.88 289.53 423.58 287.53 423.38L274.93 421.68H274.83L262.73 420.08C264.197 420.947 265.663 421.847 267.13 422.78C279.13 430.58 289.93 440.08 299.13 451.08C301.13 453.48 303.03 455.98 304.03 458.88C304.73 461.28 304.73 463.68 304.93 466.08C306.03 475.98 311.03 484.88 316.03 493.48C317.63 496.38 319.53 499.48 322.53 500.88C323.43 501.28 324.33 501.58 325.23 501.88C326.13 502.18 326.93 502.48 327.63 503.08C329.73 504.48 330.33 507.18 330.83 509.68C331.03 510.613 331.23 511.58 331.43 512.58C332.43 516.98 333.33 521.38 334.23 525.78C398.03 499.88 450.13 472.58 490.33 448.68C488.13 445.18 485.13 442.58 481.53 440.38ZM332.33 137.68C333.397 137.613 334.463 137.58 335.53 137.58C339.03 137.48 340.83 135.08 342.83 133.08C343.63 132.48 338.83 134.68 332.33 137.68ZM308.13 149.28C309.73 148.947 311.363 148.68 313.03 148.48C316.13 148.08 317.83 146.28 319.13 144.08C315.13 145.98 311.23 147.78 308.13 149.28ZM308.13 149.28C309.73 148.947 311.363 148.68 313.03 148.48C316.13 148.08 317.83 146.28 319.13 144.08C315.13 145.98 311.23 147.78 308.13 149.28ZM332.33 137.68C333.397 137.613 334.463 137.58 335.53 137.58C339.03 137.48 340.83 135.08 342.83 133.08C343.63 132.48 338.83 134.68 332.33 137.68ZM481.53 440.38C480.663 439.847 479.763 439.347 478.83 438.88C475.43 437.68 472.23 435.98 469.33 433.78C469.13 433.647 468.963 433.513 468.83 433.38C458.73 425.28 454.73 413.58 440.53 411.68C432.83 410.58 424.83 411.58 417.23 409.98C415.83 409.68 414.43 409.28 413.33 408.48C411.73 407.28 410.83 405.28 409.83 403.58C407.33 399.08 403.43 395.28 398.83 392.88C398.297 392.613 397.73 392.347 397.13 392.08C395.23 391.28 393.13 390.68 391.23 391.38C389.33 391.98 388.03 393.78 386.53 395.08C380.63 399.78 371.33 396.98 364.83 400.88C363.63 401.58 362.43 402.58 361.33 403.58C358.93 405.78 356.63 407.98 353.53 407.98C351.83 408.08 350.33 407.48 348.83 406.78C348.497 406.647 348.163 406.513 347.83 406.38C341.93 403.88 335.53 402.38 329.13 402.08C328.23 401.98 327.23 401.98 326.33 402.28C324.73 402.98 323.93 404.68 323.03 406.18C319.03 411.98 311.73 413.68 305.03 416.48C302.63 417.48 300.33 418.58 298.33 420.08C296.83 421.18 295.43 422.58 293.63 423.18C291.73 423.88 289.53 423.58 287.53 423.38L274.93 421.68H274.83L262.73 420.08C264.197 420.947 265.663 421.847 267.13 422.78C279.13 430.58 289.93 440.08 299.13 451.08C301.13 453.48 303.03 455.98 304.03 458.88C304.73 461.28 304.73 463.68 304.93 466.08C306.03 475.98 311.03 484.88 316.03 493.48C317.63 496.38 319.53 499.48 322.53 500.88C323.43 501.28 324.33 501.58 325.23 501.88C326.13 502.18 326.93 502.48 327.63 503.08C329.73 504.48 330.33 507.18 330.83 509.68C331.03 510.613 331.23 511.58 331.43 512.58C332.43 516.98 333.33 521.38 334.23 525.78C398.03 499.88 450.13 472.58 490.33 448.68C488.13 445.18 485.13 442.58 481.53 440.38ZM481.53 440.38C480.663 439.847 479.763 439.347 478.83 438.88C475.43 437.68 472.23 435.98 469.33 433.78C469.13 433.647 468.963 433.513 468.83 433.38C458.73 425.28 454.73 413.58 440.53 411.68C432.83 410.58 424.83 411.58 417.23 409.98C415.83 409.68 414.43 409.28 413.33 408.48C411.73 407.28 410.83 405.28 409.83 403.58C407.33 399.08 403.43 395.28 398.83 392.88C398.297 392.613 397.73 392.347 397.13 392.08C395.23 391.28 393.13 390.68 391.23 391.38C389.33 391.98 388.03 393.78 386.53 395.08C380.63 399.78 371.33 396.98 364.83 400.88C363.63 401.58 362.43 402.58 361.33 403.58C358.93 405.78 356.63 407.98 353.53 407.98C351.83 408.08 350.33 407.48 348.83 406.78C348.497 406.647 348.197 406.513 347.93 406.38C341.93 403.88 335.53 402.38 329.13 402.08C328.23 401.98 327.23 401.98 326.33 402.28C324.73 402.98 323.93 404.68 323.03 406.18C319.03 411.98 311.73 413.68 305.03 416.48C302.63 417.48 300.33 418.58 298.33 420.08C296.83 421.18 295.43 422.58 293.63 423.18C291.73 423.88 289.53 423.58 287.53 423.38L274.93 421.68L262.73 420.08C264.197 420.947 265.663 421.847 267.13 422.78C279.13 430.58 289.93 440.08 299.13 451.08C301.13 453.48 303.03 455.98 304.03 458.88C304.73 461.28 304.73 463.68 304.93 466.08C306.03 475.98 311.03 484.88 316.03 493.48C317.63 496.38 319.53 499.48 322.53 500.88C323.43 501.28 324.33 501.58 325.23 501.88C326.13 502.18 326.93 502.48 327.63 503.08C329.73 504.48 330.33 507.18 330.83 509.68C331.03 510.613 331.23 511.58 331.43 512.58C332.43 516.98 333.33 521.38 334.23 525.78C398.03 499.88 450.13 472.58 490.33 448.68C488.13 445.18 485.13 442.58 481.53 440.38ZM332.33 137.68C333.397 137.613 334.463 137.58 335.53 137.58C339.03 137.48 340.83 135.08 342.83 133.08C343.63 132.48 338.83 134.68 332.33 137.68ZM308.13 149.28C309.73 148.947 311.363 148.68 313.03 148.48C316.13 148.08 317.83 146.28 319.13 144.08C315.13 145.98 311.23 147.78 308.13 149.28ZM332.33 137.68C333.397 137.613 334.463 137.58 335.53 137.58C339.03 137.48 340.83 135.08 342.83 133.08C343.63 132.48 338.83 134.68 332.33 137.68ZM313.03 148.48C316.13 148.08 317.83 146.28 319.13 144.08C315.13 145.98 311.23 147.78 308.13 149.28C309.73 148.947 311.363 148.68 313.03 148.48ZM481.53 440.38C480.663 439.847 479.763 439.347 478.83 438.88C475.43 437.68 472.23 435.98 469.33 433.78C469.13 433.647 468.963 433.513 468.83 433.38C458.73 425.28 454.73 413.58 440.53 411.68C432.83 410.58 424.83 411.58 417.23 409.98C415.83 409.68 414.43 409.28 413.33 408.48C411.73 407.28 410.83 405.28 409.83 403.58C407.33 399.08 403.43 395.28 398.83 392.88C398.297 392.613 397.73 392.347 397.13 392.08C395.23 391.28 393.13 390.68 391.23 391.38C389.33 391.98 388.03 393.78 386.53 395.08C380.63 399.78 371.33 396.98 364.83 400.88C363.63 401.58 362.43 402.58 361.33 403.58C358.93 405.78 356.63 407.98 353.53 407.98C351.83 408.08 350.33 407.48 348.83 406.78C348.497 406.647 348.197 406.513 347.93 406.38C341.93 403.88 335.53 402.38 329.13 402.08C328.23 401.98 327.23 401.98 326.33 402.28C324.73 402.98 323.93 404.68 323.03 406.18C319.03 411.98 311.73 413.68 305.03 416.48C302.63 417.48 300.33 418.58 298.33 420.08C296.83 421.18 295.43 422.58 293.63 423.18C291.73 423.88 289.53 423.58 287.53 423.38L274.93 421.68L262.73 420.08C264.197 420.947 265.663 421.847 267.13 422.78C279.13 430.58 289.93 440.08 299.13 451.08C301.13 453.48 303.03 455.98 304.03 458.88C304.73 461.28 304.73 463.68 304.93 466.08C306.03 475.98 311.03 484.88 316.03 493.48C317.63 496.38 319.53 499.48 322.53 500.88C323.43 501.28 324.33 501.58 325.23 501.88C326.13 502.18 326.93 502.48 327.63 503.08C329.73 504.48 330.33 507.18 330.83 509.68C331.03 510.613 331.23 511.58 331.43 512.58C332.43 516.98 333.33 521.38 334.23 525.78C398.03 499.88 450.13 472.58 490.33 448.68C488.13 445.18 485.13 442.58 481.53 440.38ZM342.83 133.08C343.63 132.48 338.83 134.68 332.33 137.68C333.397 137.613 334.463 137.58 335.53 137.58C339.03 137.48 340.83 135.08 342.83 133.08ZM319.13 144.08C315.13 145.98 311.23 147.78 308.13 149.28C309.73 148.947 311.363 148.68 313.03 148.48C316.13 148.08 317.83 146.28 319.13 144.08ZM308.13 149.28C309.73 148.947 311.363 148.68 313.03 148.48C316.13 148.08 317.83 146.28 319.13 144.08C315.13 145.98 311.23 147.78 308.13 149.28ZM332.33 137.68C333.397 137.613 334.463 137.58 335.53 137.58C339.03 137.48 340.83 135.08 342.83 133.08C343.63 132.48 338.83 134.68 332.33 137.68ZM481.53 440.38C480.663 439.847 479.763 439.347 478.83 438.88C475.43 437.68 472.23 435.98 469.33 433.78C469.13 433.647 468.963 433.513 468.83 433.38C458.73 425.28 454.73 413.58 440.53 411.68C432.83 410.58 424.83 411.58 417.23 409.98C415.83 409.68 414.43 409.28 413.33 408.48C411.73 407.28 410.83 405.28 409.83 403.58C407.33 399.08 403.43 395.28 398.83 392.88C398.297 392.613 397.73 392.347 397.13 392.08C395.23 391.28 393.13 390.68 391.23 391.38C389.33 391.98 388.03 393.78 386.53 395.08C380.63 399.78 371.33 396.98 364.83 400.88C363.63 401.58 362.43 402.58 361.33 403.58C358.93 405.78 356.63 407.98 353.53 407.98C351.83 408.08 350.33 407.48 348.83 406.78C348.497 406.647 348.197 406.513 347.93 406.38C341.93 403.88 335.53 402.38 329.13 402.08C328.23 401.98 327.23 401.98 326.33 402.28C324.73 402.98 323.93 404.68 323.03 406.18C319.03 411.98 311.73 413.68 305.03 416.48C302.63 417.48 300.33 418.58 298.33 420.08C296.83 421.18 295.43 422.58 293.63 423.18C291.73 423.88 289.53 423.58 287.53 423.38L274.93 421.68L262.73 420.08C264.197 420.947 265.663 421.847 267.13 422.78C279.13 430.58 289.93 440.08 299.13 451.08C301.13 453.48 303.03 455.98 304.03 458.88C304.73 461.28 304.73 463.68 304.93 466.08C306.03 475.98 311.03 484.88 316.03 493.48C317.63 496.38 319.53 499.48 322.53 500.88C323.43 501.28 324.33 501.58 325.23 501.88C326.13 502.18 326.93 502.48 327.63 503.08C329.73 504.48 330.33 507.18 330.83 509.68C331.03 510.613 331.23 511.58 331.43 512.58C332.43 516.98 333.33 521.38 334.23 525.78C398.03 499.88 450.13 472.58 490.33 448.68C488.13 445.18 485.13 442.58 481.53 440.38ZM481.53 440.38C480.663 439.847 479.763 439.347 478.83 438.88C475.43 437.68 472.23 435.98 469.33 433.78C469.13 433.647 468.963 433.513 468.83 433.38C458.73 425.28 454.73 413.58 440.53 411.68C432.83 410.58 424.83 411.58 417.23 409.98C415.83 409.68 414.43 409.28 413.33 408.48C411.73 407.28 410.83 405.28 409.83 403.58C407.33 399.08 403.43 395.28 398.83 392.88C398.297 392.613 397.73 392.347 397.13 392.08C395.23 391.28 393.13 390.68 391.23 391.38C389.33 391.98 388.03 393.78 386.53 395.08C380.63 399.78 371.33 396.98 364.83 400.88C363.63 401.58 362.43 402.58 361.33 403.58C358.93 405.78 356.63 407.98 353.53 407.98C351.83 408.08 350.33 407.48 348.83 406.78C348.497 406.647 348.197 406.513 347.93 406.38C341.93 403.88 335.53 402.38 329.13 402.08C328.23 401.98 327.23 401.98 326.33 402.28C324.73 402.98 323.93 404.68 323.03 406.18C319.03 411.98 311.73 413.68 305.03 416.48C302.63 417.48 300.33 418.58 298.33 420.08C296.83 421.18 295.43 422.58 293.63 423.18C291.73 423.88 289.53 423.58 287.53 423.38L274.93 421.68L262.73 420.08C264.197 420.947 265.663 421.847 267.13 422.78C279.13 430.58 289.93 440.08 299.13 451.08C301.13 453.48 303.03 455.98 304.03 458.88C304.73 461.28 304.73 463.68 304.93 466.08C306.03 475.98 311.03 484.88 316.03 493.48C317.63 496.38 319.53 499.48 322.53 500.88C323.43 501.28 324.33 501.58 325.23 501.88C326.13 502.18 326.93 502.48 327.63 503.08C329.73 504.48 330.33 507.18 330.83 509.68C331.03 510.613 331.23 511.58 331.43 512.58C332.43 516.98 333.33 521.38 334.23 525.78C398.03 499.88 450.13 472.58 490.33 448.68C488.13 445.18 485.13 442.58 481.53 440.38ZM332.33 137.68C333.397 137.613 334.463 137.58 335.53 137.58C339.03 137.48 340.83 135.08 342.83 133.08C343.63 132.48 338.83 134.68 332.33 137.68ZM308.13 149.28C309.73 148.947 311.363 148.68 313.03 148.48C316.13 148.08 317.83 146.28 319.13 144.08C315.13 145.98 311.23 147.78 308.13 149.28ZM308.13 149.28C309.73 148.947 311.363 148.68 313.03 148.48C316.13 148.08 317.83 146.28 319.13 144.08C315.13 145.98 311.23 147.78 308.13 149.28ZM332.33 137.68C333.397 137.613 334.463 137.58 335.53 137.58C339.03 137.48 340.83 135.08 342.83 133.08C343.63 132.48 338.83 134.68 332.33 137.68ZM481.53 440.38C480.663 439.847 479.763 439.347 478.83 438.88C475.43 437.68 472.23 435.98 469.33 433.78C469.13 433.647 468.963 433.513 468.83 433.38C458.73 425.28 454.73 413.58 440.53 411.68C432.83 410.58 424.83 411.58 417.23 409.98C415.83 409.68 414.43 409.28 413.33 408.48C411.73 407.28 410.83 405.28 409.83 403.58C407.33 399.08 403.43 395.28 398.83 392.88C398.297 392.613 397.73 392.347 397.13 392.08C395.23 391.28 393.13 390.68 391.23 391.38C389.33 391.98 388.03 393.78 386.53 395.08C380.63 399.78 371.33 396.98 364.83 400.88C363.63 401.58 362.43 402.58 361.33 403.58C358.93 405.78 356.63 407.98 353.53 407.98C351.83 408.08 350.33 407.48 348.83 406.78C348.497 406.647 348.197 406.513 347.93 406.38C341.93 403.88 335.53 402.38 329.13 402.08C328.23 401.98 327.23 401.98 326.33 402.28C324.73 402.98 323.93 404.68 323.03 406.18C319.03 411.98 311.73 413.68 305.03 416.48C302.63 417.48 300.33 418.58 298.33 420.08C296.83 421.18 295.43 422.58 293.63 423.18C291.73 423.88 289.53 423.58 287.53 423.38L274.93 421.68L262.73 420.08C264.197 420.947 265.663 421.847 267.13 422.78C279.13 430.58 289.93 440.08 299.13 451.08C301.13 453.48 303.03 455.98 304.03 458.88C304.73 461.28 304.73 463.68 304.93 466.08C306.03 475.98 311.03 484.88 316.03 493.48C317.63 496.38 319.53 499.48 322.53 500.88C323.43 501.28 324.33 501.58 325.23 501.88C326.13 502.18 326.93 502.48 327.63 503.08C329.73 504.48 330.33 507.18 330.83 509.68C331.03 510.613 331.23 511.58 331.43 512.58C332.43 516.98 333.33 521.38 334.23 525.78C398.03 499.88 450.13 472.58 490.33 448.68C488.13 445.18 485.13 442.58 481.53 440.38ZM365.13 553.08C364.23 557.38 360.93 577.08 361.23 581.38C431.33 542.08 483.13 498.18 508.23 475.18C508.23 469.58 503.53 463.58 503.53 463.58C503.53 463.58 412.13 528.18 365.13 553.08ZM481.53 440.38C480.663 439.847 479.763 439.347 478.83 438.88C475.43 437.68 472.23 435.98 469.33 433.78C469.13 433.647 468.963 433.513 468.83 433.38C458.73 425.28 454.73 413.58 440.53 411.68C432.83 410.58 424.83 411.58 417.23 409.98C415.83 409.68 414.43 409.28 413.33 408.48C411.73 407.28 410.83 405.28 409.83 403.58C407.33 399.08 403.43 395.28 398.83 392.88C398.297 392.613 397.73 392.347 397.13 392.08C395.23 391.28 393.13 390.68 391.23 391.38C389.33 391.98 388.03 393.78 386.53 395.08C380.63 399.78 371.33 396.98 364.83 400.88C363.63 401.58 362.43 402.58 361.33 403.58C358.93 405.78 356.63 407.98 353.53 407.98C351.83 408.08 350.33 407.48 348.83 406.78C348.497 406.647 348.197 406.513 347.93 406.38C341.93 403.88 335.53 402.38 329.13 402.08C328.23 401.98 327.23 401.98 326.33 402.28C324.73 402.98 323.93 404.68 323.03 406.18C319.03 411.98 311.73 413.68 305.03 416.48C302.63 417.48 300.33 418.58 298.33 420.08C296.83 421.18 295.43 422.58 293.63 423.18C291.73 423.88 289.53 423.58 287.53 423.38L274.93 421.68L262.73 420.08C264.197 420.947 265.663 421.847 267.13 422.78C279.13 430.58 289.93 440.08 299.13 451.08C301.13 453.48 303.03 455.98 304.03 458.88C304.73 461.28 304.73 463.68 304.93 466.08C306.03 475.98 311.03 484.88 316.03 493.48C317.63 496.38 319.53 499.48 322.53 500.88C323.43 501.28 324.33 501.58 325.23 501.88C326.13 502.18 326.93 502.48 327.63 503.08C329.73 504.48 330.33 507.18 330.83 509.68C331.03 510.613 331.23 511.58 331.43 512.58C332.43 516.98 333.33 521.38 334.23 525.78C398.03 499.88 450.13 472.58 490.33 448.68C488.13 445.18 485.13 442.58 481.53 440.38ZM332.33 137.68C333.397 137.613 334.463 137.58 335.53 137.58C339.03 137.48 340.83 135.08 342.83 133.08C343.63 132.48 338.83 134.68 332.33 137.68ZM308.13 149.28C309.73 148.947 311.363 148.68 313.03 148.48C316.13 148.08 317.83 146.28 319.13 144.08C315.13 145.98 311.23 147.78 308.13 149.28ZM308.13 149.28C309.73 148.947 311.363 148.68 313.03 148.48C316.13 148.08 317.83 146.28 319.13 144.08C315.13 145.98 311.23 147.78 308.13 149.28ZM332.33 137.68C333.397 137.613 334.463 137.58 335.53 137.58C339.03 137.48 340.83 135.08 342.83 133.08C343.63 132.48 338.83 134.68 332.33 137.68ZM481.53 440.38C480.663 439.847 479.763 439.347 478.83 438.88C475.43 437.68 472.23 435.98 469.33 433.78C469.13 433.647 468.963 433.513 468.83 433.38C458.73 425.28 454.73 413.58 440.53 411.68C432.83 410.58 424.83 411.58 417.23 409.98C415.83 409.68 414.43 409.28 413.33 408.48C411.73 407.28 410.83 405.28 409.83 403.58C407.33 399.08 403.43 395.28 398.83 392.88C398.297 392.613 397.73 392.347 397.13 392.08C395.23 391.28 393.13 390.68 391.23 391.38C389.33 391.98 388.03 393.78 386.53 395.08C380.63 399.78 371.33 396.98 364.83 400.88C363.63 401.58 362.43 402.58 361.33 403.58C358.93 405.78 356.63 407.98 353.53 407.98C351.83 408.08 350.33 407.48 348.83 406.78C348.497 406.647 348.197 406.513 347.93 406.38C341.93 403.88 335.53 402.38 329.13 402.08C328.23 401.98 327.23 401.98 326.33 402.28C324.73 402.98 323.93 404.68 323.03 406.18C319.03 411.98 311.73 413.68 305.03 416.48C302.63 417.48 300.33 418.58 298.33 420.08C296.83 421.18 295.43 422.58 293.63 423.18C291.73 423.88 289.53 423.58 287.53 423.38L274.93 421.68L262.73 420.08C264.197 420.947 265.663 421.847 267.13 422.78C279.13 430.58 289.93 440.08 299.13 451.08C301.13 453.48 303.03 455.98 304.03 458.88C304.73 461.28 304.73 463.68 304.93 466.08C306.03 475.98 311.03 484.88 316.03 493.48C317.63 496.38 319.53 499.48 322.53 500.88C323.43 501.28 324.33 501.58 325.23 501.88C326.13 502.18 326.93 502.48 327.63 503.08C329.73 504.48 330.33 507.18 330.83 509.68C331.03 510.613 331.23 511.58 331.43 512.58C332.43 516.98 333.33 521.38 334.23 525.78C398.03 499.88 450.13 472.58 490.33 448.68C488.13 445.18 485.13 442.58 481.53 440.38ZM332.33 137.68C333.397 137.613 334.463 137.58 335.53 137.58C339.03 137.48 340.83 135.08 342.83 133.08C343.63 132.48 338.83 134.68 332.33 137.68ZM308.13 149.28C309.73 148.947 311.363 148.68 313.03 148.48C316.13 148.08 317.83 146.28 319.13 144.08C315.13 145.98 311.23 147.78 308.13 149.28ZM308.13 149.28C309.73 148.947 311.363 148.68 313.03 148.48C316.13 148.08 317.83 146.28 319.13 144.08C315.13 145.98 311.23 147.78 308.13 149.28ZM332.33 137.68C333.397 137.613 334.463 137.58 335.53 137.58C339.03 137.48 340.83 135.08 342.83 133.08C343.63 132.48 338.83 134.68 332.33 137.68ZM332.33 137.68C333.397 137.613 334.463 137.58 335.53 137.58C339.03 137.48 340.83 135.08 342.83 133.08C343.63 132.48 338.83 134.68 332.33 137.68ZM308.13 149.28C309.73 148.947 311.363 148.68 313.03 148.48C316.13 148.08 317.83 146.28 319.13 144.08C315.13 145.98 311.23 147.78 308.13 149.28Z" fill="#63CBF7"/>
<path d="M689.63 256.68C602.33 340.28 470.33 473.88 331.43 512.48C249.33 539.18 187.13 554.78 114.73 538.78C6.83002 507.48 14.33 369.08 91.23 298.58L86.73 325.98C86.43 327.28 80.73 347.78 94.43 376.18C117.03 422.68 445.93 419.08 685.33 241.18C675.33 248.58 684.83 245.18 689.53 256.68H689.63Z" fill="#1C61AD"/>
<path d="M86.73 327.28C74.13 347.88 70.13 366.98 76.13 383.28C99.83 446.68 267.43 437.38 454.63 374.08C550.93 341.48 635.73 285.68 686.23 247.88C716.63 225.08 734.63 208.88 735.43 208.28C735.43 208.214 735.43 208.18 735.43 208.18V208.28C734.63 209.18 717.93 228.28 689.53 256.68C677.93 268.38 664.23 281.68 648.83 295.88C585.13 354.68 492.33 429.58 391.03 475.48C260.53 534.68 100.83 564.28 60.93 484.38C37.23 436.98 40.93 379.78 87.33 321.48L86.73 327.28Z" fill="white"/>
<mask id="mask0_1228_440" style="mask-type:luminance" maskUnits="userSpaceOnUse" x="588" y="101" width="246" height="172">
<path d="M588.78 101.52H833.06V272.6H588.78V101.52Z" fill="white"/>
</mask>
<g mask="url(#mask0_1228_440)">
<path d="M652.23 271.28C652.23 271.28 776.63 189.48 831.33 115.18C834.23 111.28 831.63 105.78 826.93 105.18C789.83 100.28 757.03 130.48 736.53 150.38C714.23 171.98 651.83 234.48 651.83 234.48L604.23 229.98L591.63 242.88L600.23 244.48L652.33 271.38L652.23 271.28Z" fill="#1C61AD"/>
</g>
<path d="M734.03 153.68C733.03 156.68 659.73 117.88 596.93 98.8801C592.23 97.4801 589.43 104.18 593.53 106.88C624.43 127.18 666.83 151.58 687.43 190.08L715.33 172.08L734.03 153.58V153.68Z" fill="#1C61AD"/>
<path d="M676.23 104.58C676.697 105.046 676.997 105.58 677.13 106.18C677.33 106.846 677.397 107.58 677.33 108.38C677.33 109.18 677.163 110.046 676.83 110.98C676.563 111.98 676.197 112.98 675.73 113.98C675.197 115.046 674.563 116.146 673.83 117.28C673.163 118.413 672.363 119.546 671.43 120.68C670.563 121.88 669.63 123.046 668.63 124.18C667.563 125.313 666.463 126.413 665.33 127.48C664.197 128.546 663.03 129.546 661.83 130.48C660.697 131.413 659.497 132.313 658.23 133.18C657.03 133.98 655.863 134.68 654.73 135.28C653.53 135.946 652.397 136.513 651.33 136.98C650.263 137.38 649.23 137.713 648.23 137.98C647.23 138.18 646.33 138.28 645.53 138.28C644.73 138.28 643.997 138.18 643.33 137.98C642.73 137.78 642.23 137.446 641.83 136.98C641.43 136.58 641.13 136.046 640.93 135.38C640.73 134.78 640.663 134.08 640.73 133.28C640.797 132.413 640.963 131.513 641.23 130.58C641.497 129.646 641.897 128.646 642.43 127.58C642.897 126.513 643.497 125.413 644.23 124.28C644.963 123.146 645.763 122.013 646.63 120.88C647.497 119.746 648.463 118.613 649.53 117.48C650.53 116.346 651.597 115.246 652.73 114.18C653.863 113.113 655.03 112.08 656.23 111.08C657.43 110.146 658.63 109.28 659.83 108.48C661.03 107.613 662.197 106.88 663.33 106.28C664.53 105.613 665.663 105.08 666.73 104.68C667.863 104.213 668.897 103.846 669.83 103.58C670.83 103.38 671.73 103.28 672.53 103.28C673.33 103.28 674.063 103.38 674.73 103.58C675.33 103.846 675.83 104.18 676.23 104.58Z" fill="#1C61AD"/>
<path d="M716.83 124.18C717.363 124.713 717.73 125.38 717.93 126.18C718.197 126.913 718.297 127.78 718.23 128.78C718.163 129.713 717.963 130.78 717.63 131.98C717.23 133.114 716.73 134.314 716.13 135.58C715.53 136.847 714.797 138.18 713.93 139.58C713.063 140.914 712.097 142.28 711.03 143.68C709.963 145.013 708.83 146.38 707.63 147.78C706.363 149.113 705.063 150.447 703.73 151.78C702.33 153.047 700.93 154.247 699.53 155.38C698.063 156.58 696.63 157.647 695.23 158.58C693.763 159.58 692.33 160.48 690.93 161.28C689.53 162.013 688.163 162.647 686.83 163.18C685.497 163.713 684.23 164.113 683.03 164.38C681.897 164.713 680.83 164.88 679.83 164.88C678.83 164.88 677.963 164.747 677.23 164.48C676.497 164.214 675.863 163.813 675.33 163.28C674.863 162.747 674.497 162.113 674.23 161.38C674.03 160.58 673.963 159.713 674.03 158.78C674.097 157.78 674.297 156.714 674.63 155.58C674.963 154.38 675.43 153.147 676.03 151.88C676.697 150.614 677.43 149.314 678.23 147.98C679.097 146.58 680.063 145.18 681.13 143.78C682.197 142.447 683.363 141.08 684.63 139.68C685.83 138.347 687.13 137.047 688.53 135.78C689.863 134.447 691.263 133.214 692.73 132.08C694.13 130.947 695.563 129.88 697.03 128.88C698.497 127.88 699.93 127.013 701.33 126.28C702.73 125.48 704.097 124.813 705.43 124.28C706.763 123.747 707.997 123.347 709.13 123.08C710.33 122.814 711.43 122.68 712.43 122.68C713.363 122.613 714.23 122.714 715.03 122.98C715.763 123.247 716.363 123.647 716.83 124.18Z" fill="#1C61AD"/>
<path d="M764.53 195.68C764.53 195.68 766.93 276.68 751.43 329.08C750.43 332.38 745.63 332.08 745.13 328.58C740.73 298.58 742.03 260.18 722.33 230.68L764.53 195.68Z" fill="#1C61AD"/>
<path d="M783.23 256.58C783.43 257.047 783.497 257.58 783.43 258.18C783.43 258.713 783.263 259.28 782.93 259.88C782.663 260.547 782.297 261.213 781.83 261.88C781.297 262.547 780.663 263.213 779.93 263.88C779.263 264.547 778.463 265.247 777.53 265.98C776.663 266.647 775.697 267.313 774.63 267.98C773.63 268.647 772.563 269.247 771.43 269.78C770.23 270.38 769.03 270.947 767.83 271.48C766.63 272.013 765.43 272.48 764.23 272.88C763.03 273.28 761.83 273.647 760.63 273.98C759.43 274.247 758.263 274.447 757.13 274.58C755.997 274.78 754.93 274.88 753.93 274.88C752.997 274.947 752.097 274.913 751.23 274.78C750.363 274.713 749.63 274.547 749.03 274.28C748.363 274.08 747.83 273.78 747.43 273.38C746.963 273.047 746.63 272.647 746.43 272.18C746.23 271.713 746.163 271.213 746.23 270.68C746.23 270.147 746.397 269.547 746.73 268.88C746.997 268.28 747.363 267.647 747.83 266.98C748.363 266.313 748.997 265.613 749.73 264.88C750.397 264.213 751.197 263.547 752.13 262.88C752.997 262.147 753.963 261.48 755.03 260.88C756.03 260.213 757.097 259.58 758.23 258.98C759.43 258.38 760.63 257.813 761.83 257.28C763.03 256.813 764.23 256.38 765.43 255.98C766.63 255.513 767.83 255.147 769.03 254.88C770.23 254.613 771.397 254.38 772.53 254.18C773.663 253.98 774.73 253.88 775.73 253.88C776.663 253.88 777.563 253.913 778.43 253.98C779.297 254.113 780.03 254.28 780.63 254.48C781.297 254.747 781.83 255.047 782.23 255.38C782.697 255.713 783.03 256.113 783.23 256.58Z" fill="#1C61AD"/>
<path d="M781.63 218.78C781.83 219.38 781.93 220.013 781.93 220.68C781.863 221.347 781.663 222.047 781.33 222.78C780.997 223.513 780.53 224.28 779.93 225.08C779.33 225.947 778.597 226.78 777.73 227.58C776.863 228.447 775.897 229.28 774.83 230.08C773.763 230.88 772.597 231.68 771.33 232.48C770.063 233.28 768.763 234.013 767.43 234.68C766.03 235.413 764.597 236.08 763.13 236.68C761.663 237.347 760.197 237.913 758.73 238.38C757.263 238.913 755.83 239.347 754.43 239.68C752.963 240.013 751.563 240.28 750.23 240.48C748.897 240.68 747.63 240.813 746.43 240.88C745.23 240.88 744.13 240.847 743.13 240.78C742.13 240.647 741.23 240.447 740.43 240.18C739.63 239.847 738.997 239.48 738.53 239.08C737.997 238.613 737.597 238.113 737.33 237.58C737.13 237.047 737.03 236.447 737.03 235.78C737.097 235.113 737.297 234.38 737.63 233.58C737.963 232.847 738.43 232.08 739.03 231.28C739.63 230.48 740.363 229.647 741.23 228.78C742.097 227.98 743.063 227.147 744.13 226.28C745.197 225.48 746.363 224.68 747.63 223.88C748.897 223.08 750.23 222.347 751.63 221.68C752.963 220.947 754.363 220.28 755.83 219.68C757.297 219.08 758.763 218.513 760.23 217.98C761.697 217.513 763.13 217.08 764.53 216.68C765.997 216.347 767.397 216.08 768.73 215.88C770.063 215.68 771.33 215.547 772.53 215.48C773.73 215.48 774.83 215.48 775.83 215.68C776.83 215.747 777.73 215.947 778.53 216.28C779.33 216.547 779.997 216.88 780.53 217.28C780.997 217.747 781.363 218.247 781.63 218.78Z" fill="#1C61AD"/>
<path d="M774.63 515.58L768.83 513.68C783.03 472.78 790.23 429.98 790.23 386.28C790.23 356.38 786.73 326.58 780.03 297.68L785.93 296.28C792.83 325.58 796.33 355.88 796.33 386.28C796.33 430.58 789.03 474.08 774.63 515.58Z" fill="#63CBF7"/>
<mask id="mask1_1228_440" style="mask-type:luminance" maskUnits="userSpaceOnUse" x="0" y="257" width="276" height="505">
<path d="M0 257.39H275.79V761.3H0V257.39Z" fill="white"/>
</mask>
<g mask="url(#mask1_1228_440)">
<path d="M270.13 761.28C108.83 706.68 0.530029 555.98 0.530029 386.28C0.530029 343.38 7.33002 301.18 20.93 260.78L26.63 262.78C13.33 302.48 6.63004 344.08 6.63004 386.28C6.63004 553.38 113.23 701.78 272.13 755.58L270.13 761.28Z" fill="#63CBF7"/>
</g>
<mask id="mask2_1228_440" style="mask-type:luminance" maskUnits="userSpaceOnUse" x="481" y="0" width="181" height="94">
<path d="M481.91 0H661.31V93.91H481.91V0Z" fill="white"/>
</mask>
<g mask="url(#mask2_1228_440)">
<path d="M653.63 90.38C605.23 48.98 546.93 19.78 485.03 5.87997L486.43 -0.0200195C549.23 14.18 608.43 43.78 657.53 85.78L653.63 90.38Z" fill="#63CBF7"/>
</g>
<path d="M593.93 392.08C583.33 401.08 549.43 429.78 503.53 463.58C463.83 492.78 415.23 525.78 365.13 553.08C328.43 573.18 290.83 590.28 255.53 600.48C230.63 607.78 209.83 611.68 192.73 613.18C184.53 613.88 177.13 614.08 170.63 613.68C111.33 610.88 111.43 570.48 124.23 555.58C124.297 555.513 124.33 555.447 124.33 555.38C125.03 556.38 129.43 562.98 129.93 563.78C132.93 568.58 141.53 573.98 157.43 576.58C185.33 581.18 235.93 576.98 318.13 545.18C328.263 541.313 338.13 537.38 347.73 533.38C408.63 508.08 458.63 481.78 497.43 458.68C551.43 426.48 583.83 400.48 593.93 392.08Z" fill="#1C61AD"/>
<path d="M319.03 611.68C236.63 650.58 208.83 646.68 199.53 638.68C198.03 637.38 192.03 631.68 191.63 632.38C182.03 649.28 192.63 692.28 289.93 656.18C396.63 616.68 530.63 464.18 530.63 464.18C530.63 464.18 448.23 550.78 319.03 611.68Z" fill="#1C61AD"/>
</svg>
